<?xml version="1.0" encoding="UTF-8" standalone="no"?>
<!-- Created with Inkscape (http://www.inkscape.org/) -->
<svg
   xmlns:dc="http://purl.org/dc/elements/1.1/"
   xmlns:cc="http://web.resource.org/cc/"
   xmlns:rdf="http://www.w3.org/1999/02/22-rdf-syntax-ns#"
   xmlns:svg="http://www.w3.org/2000/svg"
   xmlns="http://www.w3.org/2000/svg"
   xmlns:xlink="http://www.w3.org/1999/xlink"
   xmlns:sodipodi="http://sodipodi.sourceforge.net/DTD/sodipodi-0.dtd"
   xmlns:inkscape="http://www.inkscape.org/namespaces/inkscape"
   width="547.47571"
   height="326.03812"
   id="svg2"
   sodipodi:version="0.32"
   inkscape:version="0.45.1"
   sodipodi:docbase="D:\Documents and Settings\cabazorro\Escritorio"
   sodipodi:docname="troquel.svg"
   inkscape:output_extension="org.inkscape.output.svg.inkscape"
   version="1.0">
  <defs
     id="defs4">
    <pattern
       inkscape:collect="always"
       xlink:href="#pattern6307"
       id="pattern3236"
       patternTransform="translate(84.037828,197.23616)" />
    <linearGradient
       inkscape:collect="always"
       id="linearGradient6433">
      <stop
         style="stop-color:#000000;stop-opacity:1;"
         offset="0"
         id="stop6435" />
      <stop
         style="stop-color:#000000;stop-opacity:0;"
         offset="1"
         id="stop6437" />
    </linearGradient>
    <linearGradient
       id="linearGradient5320">
      <stop
         style="stop-color:#800000;stop-opacity:1;"
         offset="0"
         id="stop5322" />
      <stop
         id="stop5328"
         offset="0.5"
         style="stop-color:#ffffff;stop-opacity:1;" />
      <stop
         style="stop-color:#800000;stop-opacity:1;"
         offset="1"
         id="stop5324" />
    </linearGradient>
    <pattern
       inkscape:collect="always"
       xlink:href="#pattern3166"
       id="pattern3171"
       patternTransform="matrix(-1,0,0,1,665.75732,196.89918)" />
    <pattern
       inkscape:collect="always"
       xlink:href="#pattern6307"
       id="pattern3166"
       patternTransform="matrix(-1,0,0,1,665.35683,196.89918)" />
    <marker
       inkscape:stockid="Dot_m"
       orient="auto"
       refY="0"
       refX="0"
       id="Dot_m"
       style="overflow:visible">
      <path
         id="path3220"
         d="M -2.5,-1 C -2.5,1.76 -4.74,4 -7.5,4 C -10.26,4 -12.5,1.76 -12.5,-1 C -12.5,-3.76 -10.26,-6 -7.5,-6 C -4.74,-6 -2.5,-3.76 -2.5,-1 z "
         style="fill-rule:evenodd;stroke:#000000;stroke-width:1pt;marker-start:none;marker-end:none"
         transform="matrix(0.4,0,0,0.4,2.96,0.4)" />
    </marker>
    <marker
       inkscape:stockid="Tail"
       orient="auto"
       refY="0"
       refX="0"
       id="Tail"
       style="overflow:visible">
      <g
         id="g3191"
         transform="scale(-1.2,-1.2)">
        <path
           id="path3193"
           d="M -3.8048674,-3.9585227 L 0.54352094,0"
           style="fill:none;fill-rule:evenodd;stroke:#000000;stroke-width:0.80000001;stroke-linecap:round;marker-start:none;marker-end:none" />
        <path
           id="path3195"
           d="M -1.2866832,-3.9585227 L 3.0617053,0"
           style="fill:none;fill-rule:evenodd;stroke:#000000;stroke-width:0.80000001;stroke-linecap:round;marker-start:none;marker-end:none" />
        <path
           id="path3197"
           d="M 1.3053582,-3.9585227 L 5.6537466,0"
           style="fill:none;fill-rule:evenodd;stroke:#000000;stroke-width:0.80000001;stroke-linecap:round;marker-start:none;marker-end:none" />
        <path
           id="path3199"
           d="M -3.8048674,4.1775838 L 0.54352094,0.21974226"
           style="fill:none;fill-rule:evenodd;stroke:#000000;stroke-width:0.80000001;stroke-linecap:round;marker-start:none;marker-end:none" />
        <path
           id="path3201"
           d="M -1.2866832,4.1775838 L 3.0617053,0.21974226"
           style="fill:none;fill-rule:evenodd;stroke:#000000;stroke-width:0.80000001;stroke-linecap:round;marker-start:none;marker-end:none" />
        <path
           id="path3203"
           d="M 1.3053582,4.1775838 L 5.6537466,0.21974226"
           style="fill:none;fill-rule:evenodd;stroke:#000000;stroke-width:0.80000001;stroke-linecap:round;marker-start:none;marker-end:none" />
      </g>
    </marker>
    <marker
       inkscape:stockid="Arrow1Lstart"
       orient="auto"
       refY="0"
       refX="0"
       id="Arrow1Lstart"
       style="overflow:visible">
      <path
         id="path3155"
         d="M 0,0 L 5,-5 L -12.5,0 L 5,5 L 0,0 z "
         style="fill-rule:evenodd;stroke:#000000;stroke-width:1pt;marker-start:none"
         transform="matrix(0.8,0,0,0.8,10,0)" />
    </marker>
    <pattern
       patternUnits="userSpaceOnUse"
       width="5.999"
       height="5.999"
       patternTransform="translate(217.9174,197.29967)"
       id="pattern6307">
      <path
         sodipodi:nodetypes="ccc"
         id="rect4366"
         d="M 5.4995,0.49950001 L 0.49950001,5.4995 L 5.4995,0.49950001 z "
         style="fill:none;fill-opacity:0.52513966;stroke:#000000;stroke-width:0.99900001;stroke-linecap:butt;stroke-linejoin:bevel;stroke-miterlimit:4;stroke-dasharray:none;stroke-dashoffset:0;stroke-opacity:1" />
    </pattern>
    <linearGradient
       inkscape:collect="always"
       xlink:href="#linearGradient6433"
       id="linearGradient6439"
       x1="426.84378"
       y1="266.33508"
       x2="441.00815"
       y2="266.30484"
       gradientUnits="userSpaceOnUse"
       spreadMethod="reflect" />
    <linearGradient
       inkscape:collect="always"
       xlink:href="#linearGradient5320"
       id="linearGradient7411"
       gradientUnits="userSpaceOnUse"
       gradientTransform="matrix(5.819833e-2,1.0777556e-2,-8.0099293e-3,7.8307278e-2,416.35212,222.77053)"
       x1="501.00406"
       y1="460.69177"
       x2="501.52176"
       y2="497.25589" />
    <linearGradient
       inkscape:collect="always"
       xlink:href="#linearGradient5320"
       id="linearGradient7414"
       gradientUnits="userSpaceOnUse"
       gradientTransform="matrix(5.819833e-2,1.0777556e-2,-8.0099293e-3,7.8307278e-2,416.35213,228.49165)"
       x1="501.00406"
       y1="460.69177"
       x2="501.52176"
       y2="497.25589" />
    <linearGradient
       inkscape:collect="always"
       xlink:href="#linearGradient5320"
       id="linearGradient7417"
       gradientUnits="userSpaceOnUse"
       gradientTransform="matrix(5.819833e-2,1.0777556e-2,-8.0099293e-3,7.8307278e-2,416.35213,217.04942)"
       x1="501.00406"
       y1="460.69177"
       x2="501.52176"
       y2="497.25589" />
    <linearGradient
       inkscape:collect="always"
       xlink:href="#linearGradient5320"
       id="linearGradient7420"
       gradientUnits="userSpaceOnUse"
       gradientTransform="matrix(-5.819833e-2,1.0777556e-2,8.0099293e-3,7.8307278e-2,467.81586,219.8822)"
       x1="501.00406"
       y1="460.69177"
       x2="501.52176"
       y2="497.25589" />
    <linearGradient
       inkscape:collect="always"
       xlink:href="#linearGradient5320"
       id="linearGradient7423"
       gradientUnits="userSpaceOnUse"
       gradientTransform="matrix(-5.819833e-2,1.0777556e-2,8.0099293e-3,7.8307278e-2,467.81586,225.65887)"
       x1="501.00406"
       y1="460.69177"
       x2="501.52176"
       y2="497.25589" />
  </defs>
  <sodipodi:namedview
     id="base"
     pagecolor="#ffffff"
     bordercolor="#666666"
     borderopacity="1.0"
     gridtolerance="10000"
     guidetolerance="10"
     objecttolerance="10"
     inkscape:pageopacity="0.0"
     inkscape:pageshadow="2"
     inkscape:zoom="1.3917182"
     inkscape:cx="289.90493"
     inkscape:cy="138.6775"
     inkscape:document-units="px"
     inkscape:current-layer="layer1"
     inkscape:window-width="1024"
     inkscape:window-height="742"
     inkscape:window-x="0"
     inkscape:window-y="0" />
  <metadata
     id="metadata7">
    <rdf:RDF>
      <cc:Work
         rdf:about="">
        <dc:format>image/svg+xml</dc:format>
        <dc:type
           rdf:resource="http://purl.org/dc/dcmitype/StillImage" />
      </cc:Work>
    </rdf:RDF>
  </metadata>
  <g
     inkscape:label="Layer 1"
     inkscape:groupmode="layer"
     id="layer1"
     transform="translate(-145.87591,-126.04165)">
    <path
       style="fill:#000080"
       d="M 411.6875,156.3125 L 411.6875,176.3125 L 411.6875,196.3125 L 407.9375,196.28125 C 405.95136,196.2721 404.81227,196.03139 403.75,195.15625 L 402.59375,195.15625 C 402.62724,195.25673 402.6875,195.35896 402.6875,195.4375 C 402.6875,195.93191 374.30791,196.3125 337.6875,196.3125 L 272.6875,196.3125 L 272.6875,209.3125 L 272.6875,222.3125 L 313.1875,222.3125 L 353.6875,222.3125 L 353.6875,227.3125 L 353.6875,232.3125 L 343.1875,232.3125 L 332.6875,232.3125 L 332.6875,229.5 C 332.6875,225.48562 330.97741,224.3125 325.1875,224.3125 C 319.3975,224.3125 317.68751,225.48562 317.6875,229.5 C 317.6875,232.27949 317.63981,232.3125 311.1875,232.3125 L 304.6875,232.3125 L 304.6875,244.8125 L 304.6875,257.3125 L 310.65625,257.3125 L 316.625,257.3125 L 316.9375,245.0625 C 317.03117,241.41346 317.11879,239.4755 317.1875,239.34375 C 317.28324,239.73415 317.37678,243.87077 317.46875,252.0625 C 317.58527,262.42943 317.33852,270.9307 316.90625,271.28125 L 316.90625,272.71875 C 317.48791,273.89631 317.68751,277.86035 317.6875,286.65625 L 317.6875,301.03125 L 317.375,301.0625 L 317.375,302.09375 L 317.6875,302.0625 L 317.6875,315.03125 L 317.6875,328.03125 L 317.375,328.0625 L 317.375,329.0625 L 317.6875,329.03125 L 317.6875,350.96875 C 317.6875,366.69806 318.0146,373.26461 318.875,374.125 C 320.432,375.68202 329.94289,375.68203 331.5,374.125 C 332.3628,373.26219 332.68751,366.53219 332.6875,350.21875 L 332.6875,327.53125 L 332.8125,327.5 L 332.8125,326.5 L 332.6875,326.53125 L 332.6875,313.46875 L 332.6875,300.40625 L 333,300.34375 L 333,299.34375 L 332.6875,299.40625 L 332.6875,285.46875 L 332.6875,271.5 L 333.03125,271.5 L 333.03125,270.46875 L 332.6875,270.46875 L 332.90625,251.625 C 333.0012,243.3592 333.06214,239.3107 333.15625,239.03125 C 333.22945,238.8139 333.33005,240.87882 333.4375,245.0625 L 333.75,257.3125 L 349.125,257.3125 L 364.5,257.3125 L 364.84375,262.9375 C 364.95259,264.7259 364.90663,266.28853 364.75,267.375 L 364.75,269.71875 C 364.94637,269.70928 365.15288,269.69002 365.34375,269.6875 C 366.7612,269.66882 367.93206,269.89912 368.1875,270.3125 C 368.5282,270.8637 371.67609,271.31251 375.1875,271.3125 C 382.8837,271.3125 384.68751,273.05797 384.6875,280.53125 L 384.6875,285.3125 L 366.75,285.3125 L 348.78125,285.3125 L 348.5,291.03125 L 348.21875,296.21875 L 348.4375,296.21875 L 348.4375,298.3125 C 348.6334,298.54913 348.6875,298.91121 348.6875,299.4375 C 348.6875,299.82337 348.59966,300.16931 348.4375,300.46875 L 348.4375,300.84375 L 348.15625,300.84375 C 347.89354,301.12621 347.55894,301.3125 347.1875,301.3125 C 345.9417,301.3125 345.68751,303.23383 345.6875,312.71875 L 345.6875,324.15625 L 345.21875,324.25 L 345.21875,325.71875 C 345.65955,326.17208 345.68751,327.30984 345.6875,329.71875 L 345.6875,334.3125 L 339.6875,334.3125 L 333.6875,334.3125 L 333.6875,355.3125 L 333.6875,376.3125 L 325.1875,376.3125 L 316.6875,376.3125 L 316.6875,355.3125 L 316.6875,334.3125 L 297.75,334.3125 C 285.836,334.3125 278.55656,334.69601 278.15625,335.34375 C 277.80615,335.91013 278.90114,337.94726 280.59375,339.875 C 281.81462,341.26549 282.68554,342.663 283.21875,344.03125 C 282.85475,342.22364 282.2266,340.21434 281.25,338 C 281.14683,337.90915 281.04138,337.82612 280.9375,337.75 C 280.74505,337.609 280.74106,337.48582 280.96875,337.375 C 280.95876,337.35335 280.94755,337.33419 280.9375,337.3125 L 281.1875,337.3125 C 282.53949,336.88578 287.6006,336.6875 297.4375,336.6875 L 315.34375,336.6875 L 315.34375,337.40625 L 316.3125,337.40625 L 316.3125,376.65625 L 333.875,376.65625 L 333.875,337.46875 L 335.1875,337.46875 L 335.1875,336.8125 L 358.4375,336.75 C 371.225,336.71964 381.68751,336.94868 381.6875,337.25 C 381.6875,337.31041 381.13813,337.92336 380.3125,338.8125 L 380.34375,340.875 C 381.15816,340.16684 381.6875,339.7047 381.6875,339.8125 C 381.6875,339.9234 381.15152,340.58308 380.34375,341.5 L 380.34375,343.8125 C 381.14384,343.12099 381.6875,342.70227 381.6875,342.8125 C 381.6875,342.92774 381.15862,343.57188 380.34375,344.5 L 380.375,346.78125 C 381.16802,346.09991 381.6875,345.69902 381.6875,345.8125 C 381.6875,345.93195 381.18919,346.56861 380.375,347.5 L 380.375,349.75 C 381.17698,349.0643 381.6875,348.69416 381.6875,348.8125 C 381.6875,348.93762 381.20059,349.55191 380.375,350.5 L 380.40625,352.71875 C 381.20719,352.03843 381.6875,351.68956 381.6875,351.8125 C 381.6875,351.94151 381.21375,352.5351 380.40625,353.46875 L 380.40625,355.6875 C 381.20085,355.01797 381.6875,354.68482 381.6875,354.8125 C 381.6875,354.9481 381.21934,355.55469 380.40625,356.5 L 380.4375,358.65625 C 381.2373,357.98752 381.6875,357.67838 381.6875,357.8125 C 381.6875,357.95178 381.21474,358.55894 380.4375,359.46875 L 380.4375,361.625 C 381.21432,360.98373 381.6875,360.67364 381.6875,360.8125 C 381.6875,360.95698 381.21777,361.58254 380.46875,362.46875 L 380.46875,364.59375 C 381.21652,363.98626 381.6875,363.66864 381.6875,363.8125 C 381.6875,363.96411 381.19702,364.59702 380.46875,365.46875 L 380.46875,367.59375 C 381.19997,367.00973 381.6875,366.66123 381.6875,366.8125 C 381.6875,366.9716 381.1965,367.62223 380.5,368.46875 L 380.5,370.53125 C 381.19221,369.98845 381.6875,369.65487 381.6875,369.8125 C 381.6875,369.9831 381.17856,370.63034 380.5,371.46875 L 380.53125,373.53125 C 381.7545,372.65549 381.79324,372.99987 380.53125,374.59375 L 380.53125,376.46875 C 381.7863,375.6013 381.857,375.96803 380.53125,377.65625 L 380.5625,379.375 C 381.82307,378.54755 381.88756,379.02937 380.5625,380.75 L 380.5625,382.25 C 380.92255,382.02172 381.23131,381.86478 381.40625,381.84375 C 381.88209,381.78654 381.62192,382.49854 380.5625,383.875 L 380.59375,384.96875 C 381.53267,384.27284 381.54338,384.59495 381.4375,386 C 381.40765,386.39639 381.27844,386.71875 380.59375,386.96875 L 380.59375,387.15625 L 379.90625,387.15625 C 378.8998,387.36939 377.24369,387.51418 374.40625,387.625 L 374.90625,387.15625 L 374.8125,387.15625 L 374.375,387.625 C 373.5466,387.65716 372.34974,387.66211 371.3125,387.6875 C 370.3587,387.71085 369.39954,387.73171 368.25,387.75 C 367.30621,387.76501 366.2745,387.80052 365.1875,387.8125 C 364.29699,387.82232 363.18032,387.80451 362.1875,387.8125 C 361.36594,387.81912 360.07466,387.80668 359.1875,387.8125 C 358.30035,387.81832 357.14517,387.80744 356.1875,387.8125 C 355.30754,387.81715 354.11538,387.80765 353.1875,387.8125 C 352.29104,387.81718 351.12797,387.80741 350.1875,387.8125 C 343.60402,387.84813 336.07462,387.90505 325.5,387.90625 C 294.8087,387.90975 269.61256,387.90544 269.53125,387.875 C 269.45005,387.84456 269.30714,381.44911 269.21875,373.6875 L 269.0625,359.59375 L 270.53125,359.65625 C 275.08352,359.4405 282.51138,357.01473 283.5,349.34375 C 282.98882,351.05684 281.89054,352.69601 280.15625,354.21875 C 277.21765,356.79888 275.78395,357.31249 271.65625,357.3125 L 266.6875,357.3125 L 266.6875,388.8125 L 266.6875,420.3125 L 295.8125,420.3125 L 324.96875,420.3125 L 324.9375,420.59375 L 325.9375,420.59375 L 325.96875,420.3125 L 350.8125,420.3125 L 375.6875,420.3125 L 375.6875,404.8125 L 375.6875,389.3125 L 384.9375,389.3125 L 394.1875,389.3125 L 394.1875,389.75 L 397.9375,389.75 L 418.6875,389.28125 L 442.1875,388.75 L 419.03125,388.53125 L 395.84375,388.3125 L 395.8125,387.9375 L 394.1875,387.9375 L 394.1875,388.3125 L 388.4375,388.3125 L 382.6875,388.3125 L 382.6875,362.3125 L 382.6875,336.3125 L 388.59375,336.3125 L 394.5,336.3125 L 394.5,336.875 L 395.875,336.875 L 395.90625,336.3125 L 416.09375,336.3125 L 436.28125,336.3125 L 436.34375,336.46875 L 439,336.46875 C 439.81563,336.37305 440.95001,336.3125 442.1875,336.3125 C 443.425,336.3125 444.55937,336.37373 445.375,336.46875 L 447.96875,336.46875 L 448.03125,336.3125 L 461.25,336.3125 C 467.63667,336.3125 470.95512,336.37728 472.8125,336.6875 L 477.59375,336.6875 C 479.35615,336.41606 482.72778,336.31249 488.59375,336.3125 L 501.6875,336.3125 L 501.6875,362.3125 L 501.6875,388.3125 L 496.8125,388.3125 L 496.8125,388.53125 L 482,388.53125 L 482,388.375 L 465.3125,388.5625 L 442.1875,388.84375 L 465.34375,389.09375 L 488.5,389.3125 L 488.5625,389.75 L 489.5625,389.75 L 489.5,389.3125 L 499.09375,389.3125 L 508.6875,389.3125 L 508.6875,404.8125 L 508.6875,420.3125 L 562.6875,420.3125 L 616.6875,420.3125 L 616.6875,388.8125 L 616.6875,357.3125 L 611.59375,357.3125 C 607.12705,357.3125 606.07147,356.88402 603.09375,353.90625 C 600.98799,351.80052 599.84299,349.5977 599.65625,347.375 C 599.78287,356.68522 608.67574,359.27592 613.40625,359.28125 L 613.40625,359.5625 L 614.3125,359.46875 L 614.25,373.625 L 614.1875,387.8125 L 558.875,387.875 C 546.89511,387.88725 536.33463,387.83775 527.21875,387.78125 C 513.18648,387.69428 503.37666,387.56055 503.28125,387.375 C 503.26157,387.33674 503.23599,387.12078 503.21875,386.75 L 502.6875,386.75 L 502.96875,337.1875 L 503.1875,337.1875 L 503.1875,336.8125 L 526.25,336.75 L 549.34375,336.6875 L 549.34375,337.0625 L 549.40625,337.0625 L 549.40625,370.09375 C 549.50101,373.33987 549.62754,375.53338 549.78125,376.25 L 550.6875,376.25 L 550.6875,355.3125 L 550.6875,334.3125 L 544.6875,334.3125 L 538.6875,334.3125 L 538.6875,317.8125 C 538.6875,303.8125 538.46018,301.31249 537.1875,301.3125 C 535.9791,301.3125 535.68748,299.75693 535.6875,293.3125 L 535.6875,285.3125 L 517.6875,285.3125 L 499.6875,285.3125 L 499.6875,280.53125 C 499.6875,273.09087 501.4931,271.31251 509.0625,271.3125 C 514.4564,271.3125 515.66668,270.96356 517.6875,268.8125 C 518.53134,267.91426 519.10447,267.33755 520.25,266.96875 L 520.25,265.3125 L 519.6875,265.3125 L 519.6875,261.3125 L 519.6875,257.3125 L 535.15625,257.3125 L 550.625,257.3125 L 550.9375,245.0625 C 551.06739,240.00269 551.15416,237.20559 551.21875,236.9375 C 551.30179,236.59281 551.35394,240.43279 551.46875,249.0625 L 551.6875,265.3125 L 551.28125,265.3125 L 551.28125,266.3125 L 551.6875,266.3125 L 551.6875,319.625 C 551.6875,359.74722 551.97173,373.2217 552.875,374.125 C 554.432,375.68202 563.94289,375.68203 565.5,374.125 C 566.4024,373.22255 566.68748,360.08056 566.6875,321.125 C 566.6875,291.40854 566.69849,278.78432 567.09375,273.375 L 567.09375,267.90625 L 566.6875,267.8125 L 566.90625,250.3125 C 567.09225,235.25307 567.16687,234.52638 567.4375,245.0625 L 567.75,257.3125 L 573.71875,257.3125 L 579.6875,257.3125 L 579.6875,244.8125 L 579.6875,232.3125 L 575.75,232.3125 C 574.17849,232.3125 572.67627,232.07916 571.84375,231.75 L 568.40625,231.75 C 567.44788,232.64782 566.68749,232.59061 566.6875,231.25 C 566.6875,230.91552 566.85543,230.7391 567.09375,230.6875 L 567.09375,228.5625 C 567.01459,228.41278 566.96402,228.28482 566.875,228.125 C 565.1927,225.10449 564.55705,224.77747 559.78125,224.5 C 553.68845,224.146 551.68748,225.37174 551.6875,229.4375 L 551.6875,232.3125 L 543.6875,232.3125 L 535.6875,232.3125 L 535.6875,227.3125 L 535.6875,222.3125 L 555.34375,222.3125 C 566.66978,222.3125 571.43541,222.3513 573.125,222.75 L 577.5,222.75 L 577.5,222.96875 C 580.625,222.581 587.10925,222.3125 594.625,222.3125 L 611.6875,222.3125 L 611.6875,215.8125 C 611.6875,212.82033 611.71639,211.21675 612,210.34375 L 612,206.65625 C 611.81275,206.30039 611.68749,205.90282 611.6875,205.5 C 611.6875,204.75777 611.73848,204.39814 611.96875,204.40625 C 611.97635,204.40652 611.99201,204.40517 612,204.40625 L 612,199.59375 C 611.78985,199.28478 611.68749,198.85766 611.6875,198.3125 C 611.6875,196.36806 611.02078,196.3125 587.6875,196.3125 C 578.72459,196.3125 572.84195,196.36483 569.125,196.09375 L 562.5,196.09375 L 562.46875,196.3125 L 517.5625,196.3125 L 472.6875,196.3125 L 472.6875,181.96875 L 472.6875,167.625 L 473.375,167.40625 L 473.375,166.21875 C 472.97745,165.75049 472.68751,163.71875 472.6875,161.3125 L 472.6875,156.3125 L 442.1875,156.3125 L 411.6875,156.3125 z M 527.21875,387.78125 L 528.28125,386.75 L 528.21875,386.75 L 527.21875,387.78125 z M 362.1875,387.8125 L 362.875,387.15625 L 362.8125,387.15625 L 362.1875,387.8125 z M 365.1875,387.8125 L 365.875,387.15625 L 365.8125,387.15625 L 365.1875,387.8125 z M 368.25,387.75 L 368.875,387.15625 L 368.8125,387.15625 L 368.25,387.75 z M 371.3125,387.6875 L 371.875,387.15625 L 371.8125,387.15625 L 371.3125,387.6875 z M 412.6875,157.3125 L 442.1875,157.3125 L 471.6875,157.3125 L 471.6875,162.21875 C 471.6875,164.44224 471.65873,165.68218 471.1875,166.625 L 471.1875,168.5 L 471.6875,168.25 L 471.6875,182.28125 L 471.6875,196.3125 L 442.1875,196.3125 L 412.6875,196.3125 L 412.6875,176.8125 L 412.6875,157.3125 z M 325.28125,197.25 C 329.53264,197.25 333.7256,197.68154 333.78125,198.5625 C 333.84445,199.5625 333.94026,199.5625 334.34375,198.5625 C 334.99885,196.93912 337.67874,196.93912 337.78125,198.5625 C 337.84445,199.5625 337.94026,199.5625 338.34375,198.5625 C 338.73275,197.59861 346.27289,197.3125 371.25,197.3125 L 403.625,197.3125 L 403.84375,197.71875 L 404.84375,197.71875 L 404.625,197.3125 L 475.0625,197.3125 C 530.4807,197.3125 545.63442,197.5791 546.03125,198.5625 C 546.43475,199.5625 546.53067,199.5625 546.59375,198.5625 C 546.69625,196.93912 549.37612,196.93912 550.03125,198.5625 C 550.43475,199.5625 550.53067,199.5625 550.59375,198.5625 C 550.64685,197.72129 552.52642,197.3125 556.28125,197.3125 L 561.84375,197.3125 L 561.78125,197.59375 L 563.8125,197.59375 C 564.22911,197.39239 564.71435,197.3125 565.3125,197.3125 C 566.6233,197.3125 567.73787,197.875 567.78125,198.5625 C 567.84445,199.5625 567.94026,199.5625 568.34375,198.5625 C 568.99885,196.93912 571.67877,196.93912 571.78125,198.5625 C 571.84445,199.5625 571.94026,199.5625 572.34375,198.5625 C 572.72235,197.62433 577.58358,197.3125 591.78125,197.3125 L 610.6875,197.3125 L 610.6875,209.3125 L 610.6875,221.3125 L 595.1875,221.3125 C 590.5067,221.3125 586.44198,221.23811 583.59375,221.125 L 574.71875,221.125 L 574.71875,221 C 573.13892,221.22919 571.37091,221.3125 569,221.3125 C 566.03727,221.3125 564.08767,221.30425 562.8125,220.875 L 554.5625,220.875 L 554.5625,220.8125 L 483.6875,221.0625 L 408.1875,221.3125 L 408.1875,221.125 L 406.625,221.125 L 406.59375,221.3125 L 340.15625,221.3125 L 273.6875,221.3125 L 273.6875,209.3125 L 273.6875,197.3125 L 292.6875,197.3125 C 307.1787,197.3125 311.72104,197.60913 311.78125,198.5625 C 311.84445,199.5625 311.94026,199.5625 312.34375,198.5625 C 312.99885,196.93912 315.67874,196.93912 315.78125,198.5625 C 315.84445,199.5625 315.94026,199.5625 316.34375,198.5625 C 316.69925,197.68154 321.02986,197.25 325.28125,197.25 z M 312.0625,200.5 C 311.85789,200.57534 311.74869,201.11563 311.78125,201.90625 C 311.82925,203.0712 312.05581,203.29773 312.375,202.5 C 312.6638,201.77813 312.61353,200.92604 312.28125,200.59375 C 312.19817,200.51068 312.1307,200.47489 312.0625,200.5 z M 316.0625,200.5 C 315.85789,200.57534 315.74869,201.11563 315.78125,201.90625 C 315.82925,203.0712 316.05581,203.29773 316.375,202.5 C 316.6638,201.77813 316.61353,200.92604 316.28125,200.59375 C 316.19817,200.51068 316.1307,200.47489 316.0625,200.5 z M 546.0625,200.5 C 545.85788,200.57534 545.74872,201.11563 545.78125,201.90625 C 545.82925,203.0712 546.05577,203.29773 546.375,202.5 C 546.6638,201.77813 546.61357,200.92604 546.28125,200.59375 C 546.19817,200.51068 546.13071,200.47489 546.0625,200.5 z M 550.0625,200.5 C 549.85788,200.57534 549.74872,201.11563 549.78125,201.90625 C 549.82925,203.0712 550.05577,203.29773 550.375,202.5 C 550.6638,201.77813 550.61357,200.92604 550.28125,200.59375 C 550.19817,200.51068 550.13071,200.47489 550.0625,200.5 z M 334.0625,203.5 C 333.85789,203.57534 333.74869,204.11563 333.78125,204.90625 C 333.82925,206.0712 334.05581,206.29773 334.375,205.5 C 334.6638,204.77813 334.61353,203.92604 334.28125,203.59375 C 334.19817,203.51068 334.1307,203.47489 334.0625,203.5 z M 568.0625,203.5 C 567.85788,203.57534 567.74872,204.11563 567.78125,204.90625 C 567.82925,206.0712 568.05577,206.29773 568.375,205.5 C 568.6638,204.77813 568.61357,203.92604 568.28125,203.59375 C 568.19817,203.51068 568.13071,203.47489 568.0625,203.5 z M 338.0625,206.5 C 337.85789,206.57534 337.74869,207.11563 337.78125,207.90625 C 337.82925,209.0712 338.05581,209.29773 338.375,208.5 C 338.6638,207.77813 338.61353,206.92604 338.28125,206.59375 C 338.19817,206.51068 338.1307,206.47489 338.0625,206.5 z M 572.0625,206.5 C 571.85788,206.57534 571.74872,207.11563 571.78125,207.90625 C 571.82925,209.0712 572.05577,209.29773 572.375,208.5 C 572.6638,207.77813 572.61357,206.92604 572.28125,206.59375 C 572.19817,206.51068 572.13071,206.47489 572.0625,206.5 z M 312.0625,207.5 C 311.85789,207.57534 311.74869,208.11563 311.78125,208.90625 C 311.82925,210.0712 312.05581,210.29773 312.375,209.5 C 312.6638,208.77813 312.61353,207.92604 312.28125,207.59375 C 312.19817,207.51068 312.1307,207.47489 312.0625,207.5 z M 316.0625,207.5 C 315.85789,207.57534 315.74869,208.11563 315.78125,208.90625 C 315.82925,210.0712 316.05581,210.29773 316.375,209.5 C 316.6638,208.77813 316.61353,207.92604 316.28125,207.59375 C 316.19817,207.51068 316.1307,207.47489 316.0625,207.5 z M 546.0625,207.5 C 545.85788,207.57534 545.74872,208.11563 545.78125,208.90625 C 545.82925,210.0712 546.05577,210.29773 546.375,209.5 C 546.6638,208.77813 546.61357,207.92604 546.28125,207.59375 C 546.19817,207.51068 546.13071,207.47489 546.0625,207.5 z M 550.0625,207.5 C 549.85788,207.57534 549.74872,208.11563 549.78125,208.90625 C 549.82925,210.0712 550.05577,210.29773 550.375,209.5 C 550.6638,208.77813 550.61357,207.92604 550.28125,207.59375 C 550.19817,207.51068 550.13071,207.47489 550.0625,207.5 z M 334.0625,210.5 C 333.85789,210.57534 333.74869,211.11563 333.78125,211.90625 C 333.82925,213.0712 334.05581,213.29773 334.375,212.5 C 334.6638,211.77813 334.61353,210.92604 334.28125,210.59375 C 334.19817,210.51068 334.1307,210.47489 334.0625,210.5 z M 338.0625,210.5 C 337.85789,210.57534 337.74869,211.11563 337.78125,211.90625 C 337.82925,213.0712 338.05581,213.29773 338.375,212.5 C 338.6638,211.77813 338.61353,210.92604 338.28125,210.59375 C 338.19817,210.51068 338.1307,210.47489 338.0625,210.5 z M 568.0625,210.5 C 567.85788,210.57534 567.74872,211.11563 567.78125,211.90625 C 567.82925,213.0712 568.05577,213.29773 568.375,212.5 C 568.6638,211.77813 568.61357,210.92604 568.28125,210.59375 C 568.19817,210.51068 568.13071,210.47489 568.0625,210.5 z M 572.0625,210.5 C 571.85788,210.57534 571.74872,211.11563 571.78125,211.90625 C 571.82925,213.0712 572.05577,213.29773 572.375,212.5 C 572.6638,211.77813 572.61357,210.92604 572.28125,210.59375 C 572.19817,210.51068 572.13071,210.47489 572.0625,210.5 z M 312.0625,217.5 C 311.85789,217.57534 311.74869,218.11563 311.78125,218.90625 C 311.82925,220.0712 312.05581,220.29773 312.375,219.5 C 312.6638,218.77813 312.61353,217.92604 312.28125,217.59375 C 312.19817,217.51068 312.1307,217.47489 312.0625,217.5 z M 316.0625,217.5 C 315.85789,217.57534 315.74869,218.11563 315.78125,218.90625 C 315.82925,220.0712 316.05581,220.29773 316.375,219.5 C 316.6638,218.77813 316.61353,217.92604 316.28125,217.59375 C 316.19817,217.51068 316.1307,217.47489 316.0625,217.5 z M 334.0625,217.5 C 333.85789,217.57534 333.74869,218.11563 333.78125,218.90625 C 333.82925,220.0712 334.05581,220.29773 334.375,219.5 C 334.6638,218.77813 334.61353,217.92604 334.28125,217.59375 C 334.19817,217.51068 334.1307,217.47489 334.0625,217.5 z M 338.0625,217.5 C 337.85789,217.57534 337.74869,218.11563 337.78125,218.90625 C 337.82925,220.0712 338.05581,220.29773 338.375,219.5 C 338.6638,218.77813 338.61353,217.92604 338.28125,217.59375 C 338.19817,217.51068 338.1307,217.47489 338.0625,217.5 z M 546.0625,217.5 C 545.85788,217.57534 545.74872,218.11563 545.78125,218.90625 C 545.82925,220.0712 546.05577,220.29773 546.375,219.5 C 546.6638,218.77813 546.61357,217.92604 546.28125,217.59375 C 546.19817,217.51068 546.13071,217.47489 546.0625,217.5 z M 550.0625,217.5 C 549.85788,217.57534 549.74872,218.11563 549.78125,218.90625 C 549.82925,220.0712 550.05577,220.29773 550.375,219.5 C 550.6638,218.77813 550.61357,217.92604 550.28125,217.59375 C 550.19817,217.51068 550.13071,217.47489 550.0625,217.5 z M 568.0625,217.5 C 567.85788,217.57534 567.74872,218.11563 567.78125,218.90625 C 567.82925,220.0712 568.05577,220.29773 568.375,219.5 C 568.6638,218.77813 568.61357,217.92604 568.28125,217.59375 C 568.19817,217.51068 568.13071,217.47489 568.0625,217.5 z M 572.0625,217.5 C 571.85788,217.57534 571.74872,218.11563 571.78125,218.90625 C 571.82925,220.0712 572.05577,220.29773 572.375,219.5 C 572.6638,218.77813 572.61357,217.92604 572.28125,217.59375 C 572.19817,217.51068 572.13071,217.47489 572.0625,217.5 z M 444.6875,223.3125 L 533.6875,223.3125 L 533.6875,226.8125 L 533.6875,230.3125 L 444.6875,230.3125 L 355.6875,230.3125 L 355.6875,226.8125 L 355.6875,223.34375 L 444.6875,223.3125 z M 325.5625,225.40625 C 326.65,225.4081 327.7174,225.47967 328.46875,225.59375 C 329.97135,225.82193 328.48751,226.00561 325.1875,226 C 321.8875,225.99439 320.67135,225.81631 322.46875,225.59375 C 323.3674,225.48247 324.475,225.4044 325.5625,225.40625 z M 559.5625,225.40625 C 560.65,225.4081 561.7174,225.47967 562.46875,225.59375 C 563.97135,225.82193 562.48748,226.00561 559.1875,226 C 555.8875,225.99439 554.67135,225.81631 556.46875,225.59375 C 557.3674,225.48247 558.475,225.4044 559.5625,225.40625 z M 318.6875,227.3125 L 325.1875,227.3125 L 331.6875,227.3125 L 331.6875,248.6875 L 331.6875,270.0625 L 331.34375,270.125 L 331.34375,271.125 L 331.6875,271.0625 L 331.6875,285.125 L 331.6875,299.21875 L 331.40625,299.25 L 331.40625,300.3125 L 331.6875,300.28125 L 331.6875,313.28125 C 331.6875,319.33802 331.65911,322.53685 331.40625,324.3125 L 331.40625,327.40625 L 331.71875,327.34375 L 331.46875,350.59375 L 331.1875,373.8125 L 325.65625,374.09375 C 322.60935,374.25525 319.79686,374.07817 319.40625,373.6875 C 319.01555,373.29684 318.68751,363.17092 318.6875,351.1875 L 318.6875,329.40625 L 319,329.34375 L 319,328.3125 L 318.6875,328.34375 L 318.6875,315.34375 C 318.6875,309.46747 318.54467,306.21815 319,304.3125 L 319,301.1875 L 318.6875,301.25 L 318.6875,286.78125 L 318.6875,272.3125 L 318.875,272.3125 L 318.875,271.3125 L 318.6875,271.3125 L 318.6875,249.3125 L 318.6875,227.3125 z M 552.6875,227.3125 L 559.1875,227.3125 L 565.6875,227.3125 L 565.6875,247.3125 C 565.6875,252.60862 565.70321,256.4802 565.65625,259.375 L 565.6875,259.375 L 565.6875,268.4375 L 565.71875,268.4375 L 565.6875,274.28125 L 565.6875,275.8125 L 565.4375,321.125 L 565.1875,373.8125 L 559.65625,374.09375 C 556.60935,374.25525 553.79686,374.07817 553.40625,373.6875 C 553.01555,373.29684 552.68748,348.9329 552.6875,319.5625 C 552.6875,296.28155 552.71795,283.18757 552.90625,275.8125 L 552.875,275.8125 L 552.875,261.71875 C 552.59223,258.907 552.68749,254.22393 552.6875,246.28125 L 552.6875,227.3125 z M 540.1875,233.3125 C 540.23451,233.3125 540.21698,233.36116 540.1875,233.4375 L 542.9375,233.4375 C 543.02597,233.38728 543.14949,233.3125 543.1875,233.3125 C 543.23451,233.3125 543.21698,233.36116 543.1875,233.4375 L 545.84375,233.4375 L 545.84375,255.9375 L 339,255.9375 L 339,233.4375 L 539.9375,233.4375 C 540.02597,233.38728 540.14949,233.3125 540.1875,233.3125 z M 314.1875,233.65625 C 314.9581,233.65625 315.2914,237.13074 315.25,244.65625 C 315.2123,251.50119 314.78821,255.77897 314.125,256 C 313.4123,256.23751 313.0625,252.59298 313.0625,245 C 313.0625,237.247 313.4184,233.65625 314.1875,233.65625 z M 336.1875,233.65625 C 336.9581,233.65625 337.2914,237.13074 337.25,244.65625 C 337.2123,251.50119 336.78821,255.77897 336.125,256 C 335.4123,256.23751 335.0625,252.59298 335.0625,245 C 335.0625,237.247 335.4184,233.65625 336.1875,233.65625 z M 548.1875,233.65625 C 548.9581,233.65625 549.29137,237.13074 549.25,244.65625 C 549.2123,251.50119 548.78818,255.77897 548.125,256 C 547.4123,256.23751 547.06247,252.59298 547.0625,245 C 547.0625,237.247 547.41843,233.65625 548.1875,233.65625 z M 570.1875,233.65625 C 570.9581,233.65625 571.29137,237.13074 571.25,244.65625 C 571.2123,251.50119 570.78818,255.77897 570.125,256 C 569.4123,256.23751 569.06247,252.59298 569.0625,245 C 569.0625,237.247 569.41843,233.65625 570.1875,233.65625 z M 306.0625,233.6875 L 308.875,233.6875 C 312.3517,233.6875 312.35791,233.95513 308.9375,237.75 L 306.1875,240.8125 L 308.9375,238.375 C 312.4922,235.24594 312.49221,236.80605 308.9375,240.75 L 306.21875,243.78125 L 308.9375,241.375 C 312.4922,238.24594 312.49221,239.80605 308.9375,243.75 L 306.25,246.71875 C 306.23736,245.99567 306.23003,245.51391 306.21875,244.75 L 306.21875,243.78125 L 306.1875,240.8125 L 306.0625,233.6875 z M 573.0625,233.6875 L 575.6875,233.6875 L 578.3125,233.6875 L 578.3125,244.875 C 578.3125,255.91029 578.28308,256.06251 576,256.0625 C 574.7263,256.0625 573.61213,256.00625 573.53125,255.9375 C 573.45035,255.86875 573.30863,250.83749 573.21875,244.75 L 573.0625,233.6875 z M 309.6875,234.3125 C 309.63589,234.26088 309.23051,234.56557 308.4375,235.1875 C 307.475,235.94235 306.68751,236.72985 306.6875,236.9375 C 306.6875,237.76054 307.50621,237.22825 308.8125,235.5625 C 309.43445,234.76947 309.73911,234.36412 309.6875,234.3125 z M 576.6875,234.3125 C 576.63589,234.26088 576.23049,234.56557 575.4375,235.1875 C 574.475,235.94235 573.68748,236.72985 573.6875,236.9375 C 573.6875,237.76054 574.50618,237.22825 575.8125,235.5625 C 576.43445,234.76947 576.73911,234.36412 576.6875,234.3125 z M 577.5,236.3125 C 577.225,236.3125 576.18298,237.2125 575.1875,238.3125 C 574.192,239.4125 573.59998,240.3125 573.875,240.3125 C 574.15,240.3125 575.19198,239.4125 576.1875,238.3125 C 577.183,237.2125 577.775,236.3125 577.5,236.3125 z M 577.5,239.3125 C 577.225,239.3125 576.18298,240.2125 575.1875,241.3125 C 574.192,242.4125 573.59998,243.3125 573.875,243.3125 C 574.15,243.3125 575.19198,242.4125 576.1875,241.3125 C 577.183,240.2125 577.775,239.3125 577.5,239.3125 z M 577.5,242.3125 C 577.225,242.3125 576.18298,243.2125 575.1875,244.3125 C 574.192,245.4125 573.59998,246.3125 573.875,246.3125 C 574.15,246.3125 575.19198,245.4125 576.1875,244.3125 C 577.183,243.2125 577.775,242.3125 577.5,242.3125 z M 311.4375,242.71875 C 311.99292,242.75694 311.15919,244.28503 308.9375,246.75 L 306.3125,249.65625 C 306.29203,248.72118 306.26869,247.81638 306.25,246.75 L 308.9375,244.375 C 310.27051,243.2016 311.10425,242.69584 311.4375,242.71875 z M 577.5,245.3125 C 577.225,245.3125 576.18298,246.2125 575.1875,247.3125 C 574.192,248.4125 573.59998,249.3125 573.875,249.3125 C 574.15,249.3125 575.19198,248.4125 576.1875,247.3125 C 577.183,246.2125 577.775,245.3125 577.5,245.3125 z M 311.4375,245.71875 C 311.99292,245.75694 311.15919,247.28503 308.9375,249.75 L 306.375,252.59375 C 306.35414,251.84203 306.33298,250.62089 306.3125,249.6875 L 308.9375,247.375 C 310.27051,246.2016 311.10425,245.69584 311.4375,245.71875 z M 577.5,248.3125 C 577.225,248.3125 576.18298,249.2125 575.1875,250.3125 C 574.192,251.4125 573.59998,252.3125 573.875,252.3125 C 574.15,252.3125 575.19198,251.4125 576.1875,250.3125 C 577.183,249.2125 577.775,248.3125 577.5,248.3125 z M 311.4375,248.71875 C 311.99292,248.75694 311.15919,250.28503 308.9375,252.75 C 306.226,255.75828 306.22431,255.77093 308.8125,253.5 L 311.4375,251.1875 L 311.4375,253.625 C 311.4375,255.51821 310.91141,256.06251 309.0625,256.0625 C 307.7562,256.0625 306.61216,256.00625 306.53125,255.9375 C 306.49132,255.90357 306.43054,254.63937 306.375,252.65625 L 308.9375,250.375 C 310.27051,249.2016 311.10425,248.69584 311.4375,248.71875 z M 577.5,251.3125 C 577.225,251.3125 576.18298,252.2125 575.1875,253.3125 C 574.192,254.4125 573.59998,255.3125 573.875,255.3125 C 574.15,255.3125 575.19198,254.4125 576.1875,253.3125 C 577.183,252.2125 577.775,251.3125 577.5,251.3125 z M 365.6875,257.28125 L 401.4375,257.53125 C 412.886,257.61535 420.40534,257.66644 425.6875,257.78125 L 438.96875,257.78125 C 438.97388,257.70379 439.00083,257.65542 439.03125,257.625 C 439.15295,257.5033 439.67419,257.42912 440.40625,257.40625 C 441.13831,257.38338 442.1047,257.41301 443.09375,257.5 L 446.3125,257.78125 L 451.15625,257.78125 L 453.125,257.78125 L 482.9375,257.53125 L 518.6875,257.28125 L 518.6875,261.1875 L 518.6875,265.0625 L 517.84375,265.09375 L 517.84375,266.65625 C 518.22074,266.83412 518.15467,267.11266 517.84375,267.53125 L 517.84375,267.8125 L 517.625,267.8125 C 517.49233,267.96862 517.36014,268.12173 517.1875,268.3125 C 515.744,269.90756 514.09616,270.31251 509.09375,270.3125 C 503.50855,270.3125 502.5955,270.59134 500.75,272.9375 C 498.8394,275.36655 498.68751,276.88969 498.6875,292.4375 L 498.6875,309.3125 L 489.1875,309.3125 L 479.6875,309.3125 L 479.6875,293.3125 L 479.6875,277.3125 L 475.1875,277.3125 L 470.6875,277.3125 L 470.6875,293.3125 L 470.6875,309.3125 L 466.25,309.3125 L 461.78125,309.3125 L 461.53125,308.84375 L 460.53125,308.84375 L 460.78125,309.3125 L 454.25,309.3125 L 447.6875,309.3125 L 447.6875,290.625 C 447.6875,281.56873 447.58094,276.63952 447.28125,274.4375 L 437.09375,274.4375 C 436.84215,277.5201 436.68751,283.67663 436.6875,290.8125 L 436.6875,309.3125 L 425.1875,309.3125 L 413.6875,309.3125 L 413.6875,293.3125 L 413.6875,277.3125 L 409.1875,277.3125 L 404.6875,277.3125 L 404.6875,293.3125 L 404.6875,309.3125 L 395.1875,309.3125 L 385.6875,309.3125 L 385.6875,292.4375 C 385.6875,276.88969 385.53571,275.36655 383.625,272.9375 C 381.7811,270.59335 380.81571,270.30865 374.875,270.1875 C 366.5515,270.01775 369.06837,269.64844 386.40625,268.65625 L 367.875,268.5 L 368.4375,268.0625 C 367.86122,268.04251 367.40492,268.0162 367.28125,267.96875 C 366.12645,267.52561 365.68751,265.99149 365.6875,262.3125 L 365.6875,257.28125 z M 502.21875,265.875 C 501.82847,265.89981 501.41467,265.91236 501.03125,265.9375 L 501.03125,266.71875 C 501.40705,266.68607 501.8324,266.68579 502.21875,266.65625 L 502.21875,265.875 z M 438.6875,275.3125 L 442.1875,275.3125 L 445.6875,275.3125 L 445.6875,291.8125 L 445.6875,308.3125 L 442.1875,308.3125 L 438.6875,308.3125 L 438.6875,291.8125 L 438.6875,275.3125 z M 406.6875,279.3125 L 409.1875,279.3125 L 411.6875,279.3125 L 411.6875,294.3125 L 411.6875,309.3125 L 409.1875,309.3125 L 406.6875,309.3125 L 406.6875,294.3125 L 406.6875,279.3125 z M 472.6875,279.3125 L 475.1875,279.3125 L 477.6875,279.3125 L 477.6875,294.3125 L 477.6875,309.3125 L 475.1875,309.3125 L 472.6875,309.3125 L 472.6875,294.3125 L 472.6875,279.3125 z M 349.6875,286.3125 L 367.1875,286.3125 L 384.6875,286.3125 L 384.6875,291.3125 L 384.6875,296.3125 L 374.6875,296.3125 C 364.6875,296.3125 364.68751,296.31249 364.6875,298.8125 C 364.6875,301.25694 364.52081,301.31249 357.1875,301.3125 C 352.61786,301.3125 350.79259,301.22422 350.09375,300.625 L 350.03125,300.625 L 350.03125,300.5625 C 349.75126,300.28156 349.6875,299.89865 349.6875,299.375 C 349.6875,298.96829 349.82275,298.57304 350.03125,298.21875 L 350.03125,295.625 C 349.73405,295.03687 349.6875,293.76501 349.6875,291.375 L 349.6875,286.3125 z M 499.6875,286.3125 L 517.1875,286.3125 L 534.6875,286.3125 L 534.6875,291.3125 L 534.6875,296.3125 L 517.1875,296.3125 L 499.6875,296.3125 L 499.6875,291.3125 L 499.6875,286.3125 z M 365.8125,297.15625 L 384.625,297.15625 L 384.625,301.09375 L 365.8125,301.09375 L 365.8125,297.15625 z M 499.6875,297.21875 L 518.5,297.21875 L 518.5,301.15625 L 499.6875,301.15625 L 499.6875,297.21875 z M 527.1875,297.3125 C 534.0208,297.3125 534.68748,297.49027 534.6875,299.3125 C 534.6875,301.13472 534.02078,301.31249 527.1875,301.3125 C 520.3541,301.3125 519.68748,301.13471 519.6875,299.3125 C 519.6875,297.49028 520.35408,297.31249 527.1875,297.3125 z M 346.6875,302.3125 L 365.6875,302.3125 C 380.2147,302.3125 384.6788,302.60675 384.6875,303.5625 C 384.6938,304.25 383.91934,311.44999 382.96875,319.5625 L 381.25,334.3125 L 363.96875,334.3125 L 346.6875,334.3125 L 346.6875,329.84375 C 346.6875,327.20803 346.7144,326.11538 347.625,325.4375 L 347.625,323.96875 C 346.79434,323.58373 346.68751,321.33476 346.6875,313.375 L 346.6875,302.3125 z M 518.6875,302.3125 L 537.6875,302.3125 L 537.6875,318.3125 L 537.6875,334.3125 L 520.40625,334.3125 L 503.125,334.3125 L 501.40625,319.5625 C 500.45555,311.45 499.68119,304.24999 499.6875,303.5625 C 499.6963,302.60676 504.16018,302.31249 518.6875,302.3125 z M 442.5,309.96875 C 442.77099,309.91716 442.97795,310.00018 443.09375,310.1875 C 443.40245,310.687 442.93476,311.68767 442.03125,312.4375 C 440.73595,313.51256 434.52075,313.82557 412.71875,313.875 C 387.46655,313.93227 385.08486,313.79148 384.96875,312.25 C 384.88155,311.09154 385.60155,310.56249 387.28125,310.5625 C 389.38695,310.5625 389.54554,310.78925 388.46875,312.1875 C 387.47275,313.48083 387.64054,313.45531 389.28125,312.0625 C 391.93995,309.80557 393.31029,309.80556 391.5625,312.0625 C 390.2719,313.72917 390.31794,313.72916 392.28125,312.0625 C 394.93995,309.80557 396.31029,309.80556 394.5625,312.0625 C 393.2719,313.72917 393.31794,313.72916 395.28125,312.0625 C 397.93995,309.80557 399.31029,309.80556 397.5625,312.0625 C 396.2719,313.72917 396.31794,313.72916 398.28125,312.0625 C 400.93995,309.80557 402.31029,309.80556 400.5625,312.0625 C 399.2719,313.72917 399.31794,313.72916 401.28125,312.0625 C 403.93995,309.80557 405.31029,309.80556 403.5625,312.0625 C 402.2719,313.72917 402.31794,313.72916 404.28125,312.0625 C 406.93995,309.80557 408.31029,309.80556 406.5625,312.0625 C 405.2719,313.72917 405.31794,313.72916 407.28125,312.0625 C 409.93995,309.80557 411.31029,309.80556 409.5625,312.0625 C 408.2719,313.72917 408.31794,313.72916 410.28125,312.0625 C 412.93995,309.80557 414.31029,309.80556 412.5625,312.0625 C 411.2719,313.72917 411.31794,313.72916 413.28125,312.0625 C 415.93995,309.80557 417.31029,309.80556 415.5625,312.0625 C 414.2719,313.72917 414.31794,313.72916 416.28125,312.0625 C 418.93995,309.80557 420.31029,309.80556 418.5625,312.0625 C 417.2719,313.72917 417.31794,313.72916 419.28125,312.0625 C 421.93995,309.80557 423.31029,309.80556 421.5625,312.0625 C 420.2719,313.72917 420.31794,313.72916 422.28125,312.0625 C 424.93995,309.80557 426.31029,309.80556 424.5625,312.0625 C 423.2719,313.72917 423.31794,313.72916 425.28125,312.0625 C 427.93995,309.80557 429.31029,309.80556 427.5625,312.0625 C 426.2719,313.72917 426.31794,313.72916 428.28125,312.0625 C 430.93995,309.80557 432.31029,309.80556 430.5625,312.0625 C 429.2719,313.72917 429.31794,313.72916 431.28125,312.0625 C 433.93995,309.80557 435.31029,309.80556 433.5625,312.0625 C 432.2985,313.69475 432.36935,313.6882 434.21875,312.21875 C 436.67265,310.26896 441.21649,309.8281 440,311.65625 C 439.5459,312.33863 439.95221,312.09399 440.875,311.09375 C 441.45169,310.4686 442.04835,310.05474 442.5,309.96875 z M 452.53125,310.3125 C 453.74455,310.3125 453.65821,310.63813 452.125,311.90625 C 450.3429,313.38024 450.41375,313.38025 452.90625,311.90625 C 456.42175,309.82723 457.24909,309.88466 455.5625,312.0625 C 454.2719,313.72917 454.31794,313.72916 456.28125,312.0625 C 458.93995,309.80557 460.31029,309.80556 458.5625,312.0625 C 457.3268,313.65829 457.42045,313.66642 459.34375,312.03125 C 461.25865,310.40329 461.49641,310.36852 462.0625,311.84375 C 462.4055,312.73747 462.68751,313.58648 462.6875,313.71875 C 462.6875,313.85101 459.32051,313.9564 455.1875,313.96875 C 447.9467,313.99037 447.70391,313.93378 449.3125,312.15625 C 450.2307,311.14166 451.68636,310.31249 452.53125,310.3125 z M 464.34375,310.3125 C 464.45946,310.301 464.59935,310.3125 464.75,310.3125 C 465.3324,310.3125 465.48184,310.87499 465.09375,311.5625 C 464.52915,312.5625 464.6726,312.56249 465.75,311.5625 C 467.7712,309.68639 469.11439,310.05857 467.5625,312.0625 C 467.02475,312.75695 466.75291,313.13426 466.71875,313.25 C 465.28808,313.04965 464.3272,312.81386 464.21875,312.53125 C 463.56626,310.83082 463.5338,310.39302 464.34375,310.3125 z M 471.09375,310.375 C 471.55331,310.375 471.4364,310.93403 470.5625,312.0625 C 469.2719,313.72917 469.31794,313.72916 471.28125,312.0625 C 473.93995,309.80557 475.31029,309.80556 473.5625,312.0625 C 472.2719,313.72917 472.31794,313.72916 474.28125,312.0625 C 476.93995,309.80557 478.31029,309.80556 476.5625,312.0625 C 475.2719,313.72917 475.31794,313.72916 477.28125,312.0625 C 479.93995,309.80557 481.31029,309.80556 479.5625,312.0625 C 478.2719,313.72917 478.31794,313.72916 480.28125,312.0625 C 482.93995,309.80557 484.31029,309.80556 482.5625,312.0625 C 481.2719,313.72917 481.31794,313.72916 483.28125,312.0625 C 485.93995,309.80557 487.31029,309.80556 485.5625,312.0625 C 484.2719,313.72917 484.31794,313.72916 486.28125,312.0625 C 488.93995,309.80557 490.31029,309.80556 488.5625,312.0625 C 487.2719,313.72917 487.31794,313.72916 489.28125,312.0625 C 491.93995,309.80557 493.31029,309.80556 491.5625,312.0625 C 490.2719,313.72917 490.31794,313.72916 492.28125,312.0625 C 494.93995,309.80557 496.31029,309.80556 494.5625,312.0625 C 493.3934,313.57229 493.53434,313.56304 495.40625,311.96875 C 497.60315,310.09768 500.11505,310.5296 499.40625,312.65625 C 498.88925,314.20732 474.73534,314.34573 466.78125,313.25 C 466.9273,313.18791 467.37919,312.82826 468.28125,312.0625 C 469.6106,310.93403 470.63419,310.375 471.09375,310.375 z M 447.1875,310.5625 C 449.6347,310.5625 449.6798,310.65041 448.0625,312.4375 C 445.9187,314.80645 443.99169,314.9137 445.8125,312.5625 C 446.8142,311.26893 446.54329,311.33412 444.8125,312.8125 L 442.46875,314.8125 L 451.9375,315.0625 L 470.96875,314.84375 L 470.96875,315.75 C 471.59026,316.30835 471.70519,317.57747 471.875,320.46875 C 472.4301,329.92173 478.68751,329.66246 478.6875,320.1875 L 478.6875,315.3125 L 489.09375,315.3125 C 490.58881,315.3125 491.878,315.28057 493,315.28125 C 500.85403,315.28603 500.27817,316.02733 501.3125,327.15625 L 501.96875,334.3125 L 488.09375,334.28125 L 475.34375,334.21875 L 475.375,334.28125 L 415.125,334.6875 L 415.125,334.28125 L 414.9375,334.28125 L 395.6875,334.3125 L 395.6875,334.28125 L 394.6875,334.28125 L 394.6875,334.3125 L 388.53125,334.3125 L 382.40625,334.3125 L 383.0625,327.15625 C 384.2445,314.43749 383.32066,315.31249 395.28125,315.3125 L 405.6875,315.3125 L 405.6875,320.1875 C 405.6875,329.66247 411.9449,329.92173 412.5,320.46875 L 412.78125,315.3125 L 426.84375,315.3125 C 430.04433,315.3125 432.40397,315.2864 434.34375,315.25 L 434.8125,315.25 C 434.83674,315.24948 434.85093,315.25054 434.875,315.25 C 440.77917,315.11851 441.4306,314.65453 442.78125,312.9375 C 443.88115,311.53922 445.6758,310.56249 447.1875,310.5625 z M 409.25,315.3125 C 411.7001,315.3125 411.7902,315.53158 411.5,320.5625 C 411.2824,324.3357 410.74011,325.88211 409.625,326.09375 C 407.2437,326.5457 406.68751,325.4027 406.6875,320.15625 C 406.6875,315.64097 406.8657,315.31249 409.25,315.3125 z M 475.25,315.3125 C 477.7001,315.3125 477.7902,315.53158 477.5,320.5625 C 477.2824,324.3357 476.74011,325.88211 475.625,326.09375 C 473.2437,326.5457 472.68751,325.4027 472.6875,320.15625 C 472.6875,315.64097 472.8657,315.31249 475.25,315.3125 z M 567.6875,334.3125 L 567.6875,337 L 569.1875,337 L 569.1875,336.8125 L 586.34375,336.75 L 603.5,336.6875 L 601.34375,339.34375 C 600.53909,341.45442 600.03032,343.3521 599.8125,345.0625 C 600.14281,343.52057 600.92558,341.9997 602.1875,340.5 C 607.2271,334.51068 606.72748,334.31249 586.1875,334.3125 L 567.6875,334.3125 z M 289.53125,337.3125 C 289.52438,337.3125 289.50811,337.34236 289.5,337.34375 L 289.5625,337.34375 C 289.55377,337.33518 289.54844,337.3125 289.53125,337.3125 z M 292.59375,337.3125 C 292.57953,337.3125 292.55326,337.33549 292.53125,337.34375 L 292.59375,337.34375 C 292.58782,337.33603 292.6075,337.3125 292.59375,337.3125 z M 313.6875,337.3125 C 313.6875,337.30285 313.58655,337.39169 313.5625,337.40625 L 313.625,337.40625 C 313.63263,337.39323 313.6875,337.31792 313.6875,337.3125 z M 340.53125,337.3125 C 340.46708,337.3125 340.34823,337.38862 340.1875,337.5 L 340.53125,337.5 C 340.5903,337.37305 340.6,337.3125 340.53125,337.3125 z M 361.65625,337.3125 C 361.62518,337.3125 361.48445,337.38847 361.3125,337.53125 L 361.5,337.53125 C 361.61462,337.38653 361.68754,337.3125 361.65625,337.3125 z M 364.65625,337.3125 C 364.62669,337.3125 364.48483,337.418 364.3125,337.5625 L 364.5,337.5625 C 364.61948,337.41409 364.68622,337.3125 364.65625,337.3125 z M 376.6875,337.3125 C 376.6875,337.2888 376.50524,337.45499 376.34375,337.59375 L 376.46875,337.59375 C 376.5369,337.51059 376.6875,337.3278 376.6875,337.3125 z M 379.6875,337.3125 C 379.6875,337.2888 379.50524,337.45499 379.34375,337.59375 L 379.46875,337.59375 C 379.5369,337.51059 379.6875,337.3278 379.6875,337.3125 z M 298.65625,337.34375 C 298.65196,337.34478 298.6301,337.37315 298.625,337.375 L 298.6875,337.375 C 298.6875,337.35781 298.67855,337.33841 298.65625,337.34375 z M 346.65625,337.34375 C 346.6145,337.3479 346.53291,337.40857 346.40625,337.5 L 346.625,337.5 C 346.64809,337.45865 346.6875,337.39404 346.6875,337.375 C 346.6875,337.35781 346.67512,337.34187 346.65625,337.34375 z M 352.6875,337.34375 C 352.6875,337.2996 352.55984,337.38766 352.375,337.53125 L 352.5625,337.53125 C 352.6139,337.45783 352.6875,337.36667 352.6875,337.34375 z M 355.6875,337.34375 C 355.6875,337.30333 355.55832,337.38609 355.375,337.53125 L 355.5625,337.53125 C 355.61014,337.46403 355.6875,337.36405 355.6875,337.34375 z M 358.6875,337.34375 C 358.6875,337.30595 358.56013,337.38206 358.375,337.53125 L 358.5625,337.53125 C 358.60671,337.46943 358.6875,337.36196 358.6875,337.34375 z M 367.6875,337.34375 C 367.6875,337.30937 367.58906,337.38144 367.375,337.5625 L 367.53125,337.5625 C 367.58613,337.491 367.6875,337.36094 367.6875,337.34375 z M 370.6875,337.34375 C 370.6875,337.31291 370.5645,337.40279 370.375,337.5625 L 370.53125,337.5625 C 370.58269,337.49566 370.6875,337.35965 370.6875,337.34375 z M 373.6875,337.34375 C 373.6875,337.31579 373.54476,337.41987 373.375,337.5625 L 373.5,337.5625 C 373.55527,337.49191 373.6875,337.35956 373.6875,337.34375 z M 343.59375,337.375 C 343.55897,337.38786 343.46153,337.46572 343.40625,337.5 L 343.65625,337.5 C 343.66822,337.47264 343.6875,337.42229 343.6875,337.40625 C 343.6875,337.37187 343.64727,337.35521 343.59375,337.375 z M 349.59375,337.375 C 349.54306,337.39761 349.48474,337.44303 349.40625,337.5 L 349.59375,337.5 C 349.6205,337.45586 349.6875,337.39315 349.6875,337.375 C 349.6875,337.35258 349.64444,337.35239 349.59375,337.375 z M 613.65625,361.3125 C 613.63576,361.3125 613.52029,361.40566 613.4375,361.46875 L 613.4375,361.65625 C 613.61335,361.44417 613.69431,361.3125 613.65625,361.3125 z M 269.84375,362.65625 C 269.74101,362.78478 269.6875,362.88144 269.6875,362.9375 C 269.6875,363.14326 269.74659,363.27269 269.84375,363.3125 L 269.84375,362.65625 z M 613.6875,364.34375 C 613.6875,364.31281 613.59401,364.37324 613.46875,364.46875 L 613.46875,364.65625 C 613.59328,364.50271 613.6875,364.37459 613.6875,364.34375 z M 269.8125,366.15625 C 269.77504,366.24425 269.76094,366.3125 269.8125,366.3125 L 269.8125,366.15625 z M 613.6875,367.34375 C 613.6875,367.31352 613.60408,367.36246 613.5,367.4375 L 613.5,367.625 C 613.60562,367.49066 613.6875,367.3742 613.6875,367.34375 z M 269.78125,369.15625 C 269.76252,369.18477 269.6875,369.27126 269.6875,369.28125 C 269.6875,369.2914 269.76191,369.22803 269.78125,369.21875 L 269.78125,369.15625 z M 613.6875,370.34375 C 613.6875,370.31453 613.61404,370.35151 613.53125,370.40625 L 613.53125,370.59375 C 613.61825,370.47838 613.6875,370.37372 613.6875,370.34375 z M 269.75,372.1875 C 269.74086,372.20321 269.6875,372.27459 269.6875,372.28125 C 269.6875,372.28682 269.74358,372.25087 269.75,372.25 L 269.75,372.1875 z M 613.6875,373.375 C 613.6875,373.34724 613.6242,373.37175 613.5625,373.40625 L 613.5625,373.59375 C 613.6313,373.49765 613.6875,373.40436 613.6875,373.375 z M 613.65625,376.34375 C 613.64446,376.34492 613.6126,376.3666 613.59375,376.375 L 613.59375,376.5625 C 613.64498,376.48451 613.6875,376.40356 613.6875,376.375 C 613.6875,376.35781 613.67512,376.34187 613.65625,376.34375 z M 613.625,379.375 L 613.625,379.5625 C 613.6596,379.50238 613.6875,379.43375 613.6875,379.40625 C 613.6875,379.38047 613.65889,379.37295 613.625,379.375 z M 504.125,386.75 C 503.85826,387.04683 503.6875,387.24894 503.6875,387.28125 C 503.6875,387.32071 503.95006,387.106 504.34375,386.75 L 504.125,386.75 z M 507.125,386.75 C 506.84404,387.06282 506.6875,387.24687 506.6875,387.28125 C 506.6875,387.32195 506.95354,387.10144 507.34375,386.75 L 507.125,386.75 z M 510.125,386.75 C 509.85041,387.05725 509.6875,387.24596 509.6875,387.28125 C 509.6875,387.32348 509.95468,387.09897 510.34375,386.75 L 510.125,386.75 z M 513.125,386.75 C 512.85675,387.05181 512.6875,387.24492 512.6875,387.28125 C 512.6875,387.32491 512.9607,387.09173 513.34375,386.75 L 513.125,386.75 z M 516.15625,386.75 C 515.86908,387.07708 515.67666,387.3125 515.71875,387.3125 C 515.76107,387.3125 516.03717,387.08056 516.40625,386.75 L 516.15625,386.75 z M 519.15625,386.75 C 518.87222,387.07566 518.67464,387.3125 518.71875,387.3125 C 518.76303,387.3125 519.03796,387.07815 519.40625,386.75 L 519.15625,386.75 z M 522.15625,386.75 C 521.87148,387.07866 521.67195,387.3125 521.71875,387.3125 C 521.76545,387.3125 522.03696,387.07718 522.40625,386.75 L 522.15625,386.75 z M 525.09375,386.75 C 524.85203,387.0305 524.6875,387.23882 524.6875,387.28125 C 524.6875,387.33743 524.96008,387.11333 525.375,386.75 L 525.09375,386.75 z M 531.09375,386.75 C 530.861,387.02647 530.6875,387.23296 530.6875,387.28125 C 530.6875,387.35115 530.96586,387.1599 531.4375,386.75 L 531.09375,386.75 z M 533.9375,386.75 C 533.86882,386.8309 533.6875,387.01593 533.6875,387.03125 C 533.6875,387.32561 533.89897,387.30833 534.5625,386.75 L 533.9375,386.75 z M 537.03125,386.75 C 536.82232,387.00744 536.6875,387.19361 536.6875,387.25 C 536.6875,387.33214 536.9804,387.10286 537.40625,386.75 L 537.03125,386.75 z M 540,386.75 C 539.8146,386.98341 539.6875,387.16048 539.6875,387.21875 C 539.6875,387.30936 540.01155,387.09335 540.4375,386.75 L 540,386.75 z M 543,386.75 C 542.80535,386.99598 542.6875,387.15557 542.6875,387.21875 C 542.6875,387.31446 542.98206,387.08849 543.40625,386.75 L 543,386.75 z M 546,386.75 C 545.80535,386.99598 545.6875,387.15557 545.6875,387.21875 C 545.6875,387.31446 545.98206,387.08849 546.40625,386.75 L 546,386.75 z M 549,386.75 C 548.80535,386.99598 548.6875,387.15557 548.6875,387.21875 C 548.6875,387.31446 548.98206,387.08849 549.40625,386.75 L 549,386.75 z M 552,386.75 C 551.80535,386.99598 551.6875,387.15557 551.6875,387.21875 C 551.6875,387.31446 551.98206,387.08849 552.40625,386.75 L 552,386.75 z M 555,386.75 C 554.80535,386.99598 554.6875,387.15557 554.6875,387.21875 C 554.6875,387.31446 554.98206,387.08849 555.40625,386.75 L 555,386.75 z M 558,386.75 C 557.80535,386.99598 557.6875,387.15557 557.6875,387.21875 C 557.6875,387.31446 557.98206,387.08849 558.40625,386.75 L 558,386.75 z M 561.15625,386.75 C 560.86027,387.08419 560.67863,387.3125 560.71875,387.3125 C 560.75926,387.3125 561.02872,387.09053 561.40625,386.75 L 561.15625,386.75 z M 564.09375,386.75 C 563.83208,387.04529 563.6875,387.24485 563.6875,387.28125 C 563.6875,387.32599 563.95317,387.09832 564.34375,386.75 L 564.09375,386.75 z M 567.15625,386.75 C 566.86908,387.07708 566.67666,387.3125 566.71875,387.3125 C 566.76107,387.3125 567.03717,387.08056 567.40625,386.75 L 567.15625,386.75 z M 570.09375,386.75 C 569.83832,387.04012 569.6875,387.24361 569.6875,387.28125 C 569.6875,387.32829 569.9505,387.09906 570.34375,386.75 L 570.09375,386.75 z M 573.15625,386.75 C 572.87222,387.07566 572.67464,387.3125 572.71875,387.3125 C 572.76303,387.3125 573.03796,387.07815 573.40625,386.75 L 573.15625,386.75 z M 576.15625,386.75 C 575.8635,387.08564 575.67316,387.3125 575.71875,387.3125 C 575.76439,387.3125 576.05997,387.08629 576.4375,386.75 L 576.15625,386.75 z M 579.09375,386.75 C 578.84204,387.03843 578.6875,387.24123 578.6875,387.28125 C 578.6875,387.33174 578.9493,387.09741 579.34375,386.75 L 579.09375,386.75 z M 582.15625,386.75 C 581.87148,387.07866 581.67195,387.3125 581.71875,387.3125 C 581.76545,387.3125 582.03696,387.07718 582.40625,386.75 L 582.15625,386.75 z M 585.15625,386.75 C 584.87148,387.07866 584.67195,387.3125 584.71875,387.3125 C 584.76545,387.3125 585.03696,387.07718 585.40625,386.75 L 585.15625,386.75 z M 588.15625,386.75 C 587.8656,387.08575 587.67048,387.3125 587.71875,387.3125 C 587.76701,387.3125 588.05837,387.08576 588.4375,386.75 L 588.15625,386.75 z M 591.09375,386.75 C 590.85831,387.02454 590.6875,387.23846 590.6875,387.28125 C 590.6875,387.33881 590.95843,387.11391 591.375,386.75 L 591.09375,386.75 z M 594.09375,386.75 C 593.85996,387.02545 593.6875,387.23542 593.6875,387.28125 C 593.6875,387.34597 593.95339,387.14479 594.40625,386.75 L 594.09375,386.75 z M 597.0625,386.75 C 596.84613,387.00827 596.6875,387.2021 596.6875,387.25 C 596.6875,387.31997 596.92871,387.13159 597.375,386.75 L 597.0625,386.75 z M 600.0625,386.75 C 599.85313,387.00457 599.6875,387.19791 599.6875,387.25 C 599.6875,387.32708 599.99654,387.12121 600.4375,386.75 L 600.0625,386.75 z M 603.03125,386.75 C 602.82731,387.00394 602.6875,387.19173 602.6875,387.25 C 602.6875,387.33647 603.00797,387.10385 603.4375,386.75 L 603.03125,386.75 z M 605.96875,386.75 C 605.78703,386.98445 605.6875,387.15392 605.6875,387.21875 C 605.6875,387.32404 606.01963,387.10781 606.46875,386.75 L 605.96875,386.75 z M 609.0625,386.75 C 608.84307,387.07441 608.72972,387.3125 608.84375,387.3125 C 608.95833,387.3125 609.26517,387.07733 609.65625,386.75 L 609.0625,386.75 z M 269.78125,387.15625 C 269.76703,387.17769 269.6875,387.27392 269.6875,387.28125 C 269.6875,387.29307 269.80695,387.18135 269.84375,387.15625 L 269.78125,387.15625 z M 272.78125,387.15625 C 272.76623,387.17895 272.6875,387.27345 272.6875,387.28125 C 272.6875,387.29565 272.82423,387.19281 272.875,387.15625 L 272.78125,387.15625 z M 275.78125,387.15625 C 275.76533,387.18036 275.6875,387.27292 275.6875,387.28125 C 275.6875,387.29692 275.81924,387.19656 275.875,387.15625 L 275.78125,387.15625 z M 278.78125,387.15625 C 278.76433,387.18196 278.6875,387.27231 278.6875,387.28125 C 278.6875,387.29592 278.79863,387.18691 278.84375,387.15625 L 278.78125,387.15625 z M 281.84375,387.15625 C 281.80952,387.20639 281.70259,387.3125 281.71875,387.3125 C 281.73382,387.3125 281.84795,387.19991 281.90625,387.15625 L 281.84375,387.15625 z M 284.8125,387.15625 C 284.78182,387.20304 284.70237,387.3125 284.71875,387.3125 C 284.73677,387.3125 284.86363,387.21273 284.9375,387.15625 L 284.8125,387.15625 z M 287.8125,387.15625 C 287.77704,387.20985 287.70024,387.3125 287.71875,387.3125 C 287.73846,387.3125 287.85786,387.21691 287.9375,387.15625 L 287.8125,387.15625 z M 290.78125,387.15625 C 290.75886,387.19099 290.6875,387.26862 290.6875,387.28125 C 290.6875,387.30751 290.78015,387.22566 290.875,387.15625 L 290.78125,387.15625 z M 293.8125,387.15625 L 293.1875,387.8125 L 293.875,387.15625 L 293.8125,387.15625 z M 296.78125,387.15625 C 296.75489,387.19805 296.6875,387.26539 296.6875,387.28125 C 296.6875,387.31788 296.77001,387.25774 296.90625,387.15625 L 296.78125,387.15625 z M 299.71875,387.15625 C 299.75602,387.23141 299.841,387.24077 300,387.15625 L 299.71875,387.15625 z M 302.75,387.15625 C 302.73357,387.18751 302.6875,387.23466 302.6875,387.25 C 302.6875,387.29348 302.77956,387.24133 302.90625,387.15625 L 302.75,387.15625 z M 305.71875,387.15625 C 305.71106,387.17503 305.6875,387.20729 305.6875,387.21875 C 305.6875,387.26374 305.76222,387.22496 305.875,387.15625 L 305.71875,387.15625 z M 308.71875,387.15625 C 308.71183,387.17428 308.6875,387.20729 308.6875,387.21875 C 308.6875,387.26626 308.76225,387.22278 308.875,387.15625 L 308.71875,387.15625 z M 311.71875,387.15625 C 311.71183,387.17428 311.6875,387.20729 311.6875,387.21875 C 311.6875,387.26626 311.76225,387.22278 311.875,387.15625 L 311.71875,387.15625 z M 314.71875,387.15625 C 314.71183,387.17428 314.6875,387.20729 314.6875,387.21875 C 314.6875,387.26626 314.76225,387.22278 314.875,387.15625 L 314.71875,387.15625 z M 317.71875,387.15625 C 317.71183,387.17428 317.6875,387.20729 317.6875,387.21875 C 317.6875,387.26626 317.76225,387.22278 317.875,387.15625 L 317.71875,387.15625 z M 320.71875,387.15625 C 320.71183,387.17428 320.6875,387.20729 320.6875,387.21875 C 320.6875,387.26626 320.76225,387.22278 320.875,387.15625 L 320.71875,387.15625 z M 323.71875,387.15625 C 323.71183,387.17428 323.6875,387.20729 323.6875,387.21875 C 323.6875,387.26626 323.76225,387.22278 323.875,387.15625 L 323.71875,387.15625 z M 326.78125,387.15625 C 326.76799,387.17613 326.6875,387.27454 326.6875,387.28125 C 326.6875,387.29193 326.81035,387.17907 326.84375,387.15625 L 326.78125,387.15625 z M 329.78125,387.15625 C 329.76799,387.17613 329.6875,387.27454 329.6875,387.28125 C 329.6875,387.29193 329.81035,387.17907 329.84375,387.15625 L 329.78125,387.15625 z M 268.6875,390.3125 L 321.1875,390.3125 L 373.6875,390.3125 L 373.6875,404.3125 L 373.6875,418.3125 L 349.71875,418.3125 L 325.78125,418.3125 L 325.6875,417.96875 L 324.71875,417.96875 L 324.8125,418.3125 L 296.75,418.3125 L 268.6875,418.3125 L 268.6875,404.3125 L 268.6875,390.3125 z M 510.6875,390.3125 L 562.6875,390.3125 L 614.6875,390.3125 L 614.6875,404.3125 L 614.6875,418.3125 L 562.6875,418.3125 L 510.6875,418.3125 L 510.6875,404.3125 L 510.6875,390.3125 z "
       id="path2170" />
    <g
       id="g3270">
      <path
         sodipodi:nodetypes="cc"
         id="path2179"
         d="M 337.72679,405.70701 C 296.64045,411.84757 289.05885,422.71695 278.01627,437.89465"
         style="fill:none;fill-rule:evenodd;stroke:#000000;stroke-width:1px;stroke-linecap:butt;stroke-linejoin:miter;marker-start:url(#Arrow1Lstart);marker-end:url(#Dot_m);stroke-opacity:1" />
      <text
         id="text3360"
         y="449.58368"
         x="223.20598"
         style="font-size:12px;font-style:normal;font-weight:normal;fill:#000000;fill-opacity:1;stroke:none;stroke-width:1px;stroke-linecap:butt;stroke-linejoin:miter;stroke-opacity:1;font-family:Bitstream Vera Sans"
         xml:space="preserve"><tspan
           y="449.58368"
           x="223.20598"
           id="tspan3362"
           sodipodi:role="line">Placas paralelas</tspan></text>
    </g>
    <rect
       style="fill:url(#pattern6307);fill-opacity:1;stroke:#000000;stroke-width:0.99921262;stroke-linecap:round;stroke-linejoin:bevel;stroke-miterlimit:4;stroke-dasharray:none;stroke-dashoffset:0;stroke-opacity:1"
       id="rect3389"
       width="206.85378"
       height="22.477503"
       x="338.98505"
       y="233.45207" />
    <path
       style="fill:url(#pattern6307);fill-opacity:1;stroke:#000000;stroke-width:0.99900001;stroke-linecap:butt;stroke-linejoin:bevel;stroke-miterlimit:4;stroke-dashoffset:0;stroke-opacity:1"
       d="M 280.9375,337.3125 C 289.26243,355.27547 276.04334,359.68055 269.875,359.6875 L 269.59375,387.15625 L 380.59375,387.15625 L 380.3125,337.59375 L 333.875,337.46875 L 333.875,376.65625 L 316.3125,376.65625 L 316.3125,337.40625 L 280.9375,337.3125 z "
       id="rect2178" />
    <path
       id="path3164"
       d="M 602.73722,336.91201 C 594.41229,354.87498 607.63138,359.28006 613.79972,359.28701 L 614.08097,386.75576 L 503.08097,386.75576 L 503.36222,337.19326 L 549.79972,337.06826 L 549.79972,376.25576 L 567.36222,376.25576 L 567.36222,337.00576 L 602.73722,336.91201 z "
       style="fill:url(#pattern3171);fill-opacity:1;stroke:#000000;stroke-width:0.99900001;stroke-linecap:butt;stroke-linejoin:bevel;stroke-miterlimit:4;stroke-dashoffset:0;stroke-opacity:1" />
    <g
       id="g3275"
       transform="translate(-53.934861,-281.36439)">
      <path
         sodipodi:nodetypes="cc"
         id="path3277"
         d="M 430.31929,507.23947 C 407.75145,458.94291 318.61279,518.01825 348.31446,467.11861"
         style="fill:none;fill-rule:evenodd;stroke:#000000;stroke-width:1px;stroke-linecap:butt;stroke-linejoin:miter;marker-start:url(#Arrow1Lstart);marker-end:url(#Dot_m);stroke-opacity:1" />
      <text
         id="text3279"
         y="472.20419"
         x="353.09494"
         style="font-size:12px;font-style:normal;font-weight:normal;fill:#000000;fill-opacity:1;stroke:none;stroke-width:1px;stroke-linecap:butt;stroke-linejoin:miter;stroke-opacity:1;font-family:Bitstream Vera Sans"
         xml:space="preserve"><tspan
           y="472.20419"
           x="353.09494"
           id="tspan3281"
           sodipodi:role="line">Sufridera</tspan></text>
    </g>
    <g
       id="g3283"
       transform="translate(281.55149,-334.02549)">
      <path
         sodipodi:nodetypes="cc"
         id="path3285"
         d="M 287.00989,610.05714 C 389.60157,609.01468 361.54164,619.39429 387.17784,606.57122"
         style="fill:none;fill-rule:evenodd;stroke:#000000;stroke-width:1px;stroke-linecap:butt;stroke-linejoin:miter;marker-start:url(#Arrow1Lstart);marker-end:url(#Dot_m);stroke-opacity:1" />
      <text
         id="text3287"
         y="602.47809"
         x="379.50912"
         style="font-size:12px;font-style:normal;font-weight:normal;fill:#000000;fill-opacity:1;stroke:none;stroke-width:1px;stroke-linecap:butt;stroke-linejoin:miter;stroke-opacity:1;font-family:Bitstream Vera Sans"
         xml:space="preserve"><tspan
           y="602.47809"
           x="379.50912"
           id="tspan3289"
           sodipodi:role="line">Poste</tspan></text>
    </g>
    <g
       id="g3291"
       transform="translate(276.351,-222.15196)">
      <path
         sodipodi:nodetypes="cc"
         id="path3293"
         d="M 213.20585,489.99811 C 243.63097,484.79532 346.69938,504.06398 348.31446,467.11861"
         style="fill:none;fill-rule:evenodd;stroke:#000000;stroke-width:1px;stroke-linecap:butt;stroke-linejoin:miter;marker-start:url(#Arrow1Lstart);marker-end:url(#Dot_m);stroke-opacity:1" />
      <text
         id="text3295"
         y="472.20419"
         x="353.09494"
         style="font-size:12px;font-style:normal;font-weight:normal;fill:#000000;fill-opacity:1;stroke:none;stroke-width:1px;stroke-linecap:butt;stroke-linejoin:miter;stroke-opacity:1;font-family:Bitstream Vera Sans"
         xml:space="preserve"><tspan
           y="472.20419"
           x="353.09494"
           id="tspan3297"
           sodipodi:role="line">Punzn</tspan></text>
    </g>
    <g
       id="g3299"
       transform="translate(-201.01287,-94.289602)">
      <path
         sodipodi:nodetypes="cc"
         id="path3301"
         d="M 475.87795,441.52398 C 451.60365,408.84921 377.92913,435.97162 385.59334,462.73286"
         style="fill:none;fill-rule:evenodd;stroke:#000000;stroke-width:1px;stroke-linecap:butt;stroke-linejoin:miter;marker-start:url(#Arrow1Lstart);marker-end:url(#Dot_m);stroke-opacity:1" />
      <text
         id="text3303"
         y="472.20419"
         x="353.09494"
         style="font-size:12px;font-style:normal;font-weight:normal;fill:#000000;fill-opacity:1;stroke:none;stroke-width:1px;stroke-linecap:butt;stroke-linejoin:miter;stroke-opacity:1;font-family:Bitstream Vera Sans"
         xml:space="preserve"><tspan
           y="472.20419"
           x="353.09494"
           id="tspan3305"
           sodipodi:role="line">Porta matriz</tspan></text>
    </g>
    <g
       id="g3307"
       transform="translate(76.53231,-336.56489)">
      <path
         sodipodi:nodetypes="cc"
         id="path3309"
         d="M 328.53019,511.2259 C 287.44385,521.67768 307.75712,458.63134 348.31446,467.11861"
         style="fill:none;fill-rule:evenodd;stroke:#000000;stroke-width:1px;stroke-linecap:butt;stroke-linejoin:miter;marker-start:url(#Arrow1Lstart);marker-end:url(#Dot_m);stroke-opacity:1" />
      <text
         id="text3311"
         y="472.20419"
         x="353.09494"
         style="font-size:12px;font-style:normal;font-weight:normal;fill:#000000;fill-opacity:1;stroke:none;stroke-width:1px;stroke-linecap:butt;stroke-linejoin:miter;stroke-opacity:1;font-family:Bitstream Vera Sans"
         xml:space="preserve"><tspan
           y="472.20419"
           x="353.09494"
           id="tspan3313"
           sodipodi:role="line">Mameln</tspan></text>
    </g>
    <g
       transform="translate(-152.76961,-51.16305)"
       id="g3315">
      <path
         style="fill:none;fill-rule:evenodd;stroke:#000000;stroke-width:1px;stroke-linecap:butt;stroke-linejoin:miter;marker-start:url(#Arrow1Lstart);marker-end:url(#Dot_m);stroke-opacity:1"
         d="M 505.11629,366.23526 C 452.3346,356.95115 400.58885,373.10919 362.93363,377.94167"
         id="path3317"
         sodipodi:nodetypes="cc" />
      <text
         xml:space="preserve"
         style="font-size:12px;font-style:normal;font-weight:normal;fill:#000000;fill-opacity:1;stroke:none;stroke-width:1px;stroke-linecap:butt;stroke-linejoin:miter;stroke-opacity:1;font-family:Bitstream Vera Sans"
         x="322.39468"
         y="384.48917"
         id="text3319"><tspan
           sodipodi:role="line"
           id="tspan3321"
           x="322.39468"
           y="384.48917">Matriz</tspan></text>
    </g>
    <g
       id="g3323"
       transform="translate(145.14872,-36.164976)">
      <path
         sodipodi:nodetypes="cccc"
         id="path3325"
         d="M 296.85838,327.16303 C 276.11917,332.43879 279.25672,358.40145 292.50259,387.69192 C 296.4005,387.78457 296.53528,390.76407 295.73113,394.49967 C 309.04005,421.35412 329.74779,449.83806 347.67589,467.11861"
         style="fill:none;fill-rule:evenodd;stroke:#000000;stroke-width:1px;stroke-linecap:butt;stroke-linejoin:miter;marker-start:url(#Arrow1Lstart);marker-end:url(#Dot_m);stroke-opacity:1" />
      <text
         id="text3327"
         y="472.20419"
         x="353.09494"
         style="font-size:12px;font-style:normal;font-weight:normal;fill:#000000;fill-opacity:1;stroke:none;stroke-width:1px;stroke-linecap:butt;stroke-linejoin:miter;stroke-opacity:1;font-family:Bitstream Vera Sans"
         xml:space="preserve"><tspan
           y="472.20419"
           x="353.09494"
           id="tspan3329"
           sodipodi:role="line">Botador</tspan></text>
    </g>
    <g
       id="g3331"
       transform="translate(-172.51087,-163.77006)">
      <path
         sodipodi:nodetypes="cc"
         id="path3333"
         d="M 531.43079,455.41219 C 445.02503,400.80866 434.21294,498.1031 392.90293,470.04244"
         style="fill:none;fill-rule:evenodd;stroke:#000000;stroke-width:1px;stroke-linecap:butt;stroke-linejoin:miter;marker-start:url(#Arrow1Lstart);marker-end:url(#Dot_m);stroke-opacity:1" />
      <text
         id="text3335"
         y="472.20419"
         x="353.09494"
         style="font-size:12px;font-style:normal;font-weight:normal;fill:#000000;fill-opacity:1;stroke:none;stroke-width:1px;stroke-linecap:butt;stroke-linejoin:miter;stroke-opacity:1;font-family:Bitstream Vera Sans"
         xml:space="preserve"><tspan
           y="472.20419"
           x="353.09494"
           id="tspan3337"
           sodipodi:role="line">Guias</tspan></text>
    </g>
    <g
       id="g3339"
       transform="translate(78.457325,-47.012489)">
      <path
         sodipodi:nodetypes="cc"
         id="path3341"
         d="M 323.83858,365.50429 C 305.41195,385.45853 296.06178,443.28121 348.31446,467.11861"
         style="fill:none;fill-rule:evenodd;stroke:#000000;stroke-width:1px;stroke-linecap:butt;stroke-linejoin:miter;marker-start:url(#Arrow1Lstart);marker-end:url(#Dot_m);stroke-opacity:1" />
      <text
         id="text3343"
         y="472.20419"
         x="353.09494"
         style="font-size:12px;font-style:normal;font-weight:normal;fill:#000000;fill-opacity:1;stroke:none;stroke-width:1px;stroke-linecap:butt;stroke-linejoin:miter;stroke-opacity:1;font-family:Bitstream Vera Sans"
         xml:space="preserve"><tspan
           y="472.20419"
           x="353.09494"
           id="tspan3345"
           sodipodi:role="line">Pilotos</tspan></text>
      <path
         style="fill:none;fill-rule:evenodd;stroke:#000000;stroke-width:1px;stroke-linecap:butt;stroke-linejoin:miter;marker-start:url(#Arrow1Lstart);marker-end:url(#Dot_m);stroke-opacity:1"
         d="M 391.08676,370.621 C 371.91318,387.60339 307.44837,457.7051 348.31446,467.11861"
         id="path4330"
         sodipodi:nodetypes="cc" />
    </g>
    <g
       id="g3347"
       transform="translate(287.72046,-160.77653)">
      <path
         sodipodi:nodetypes="cc"
         id="path3349"
         d="M 202.1067,473.16571 C 291.01889,486.42826 307.75712,458.63134 348.31446,467.11861"
         style="fill:none;fill-rule:evenodd;stroke:#000000;stroke-width:1px;stroke-linecap:butt;stroke-linejoin:miter;marker-start:url(#Arrow1Lstart);marker-end:url(#Dot_m);stroke-opacity:1" />
      <text
         id="text3351"
         y="472.20419"
         x="353.09494"
         style="font-size:12px;font-style:normal;font-weight:normal;fill:#000000;fill-opacity:1;stroke:none;stroke-width:1px;stroke-linecap:butt;stroke-linejoin:miter;stroke-opacity:1;font-family:Bitstream Vera Sans"
         xml:space="preserve"><tspan
           y="472.20419"
           x="353.09494"
           id="tspan3353"
           sodipodi:role="line">Pieza</tspan></text>
    </g>
    <g
       id="g4332"
       transform="translate(-157.32444,-339.11415)">
      <path
         sodipodi:nodetypes="cc"
         id="path4334"
         d="M 426.14345,548.9227 C 396.62852,545.77215 378.61676,551.58708 377.66712,529.42304"
         style="fill:none;fill-rule:evenodd;stroke:#000000;stroke-width:1px;stroke-linecap:butt;stroke-linejoin:miter;marker-start:url(#Arrow1Lstart);marker-end:url(#Dot_m);stroke-opacity:1" />
      <text
         id="text4336"
         y="523.84534"
         x="342.97919"
         style="font-size:12px;font-style:normal;font-weight:normal;fill:#000000;fill-opacity:1;stroke:none;stroke-width:1px;stroke-linecap:butt;stroke-linejoin:miter;stroke-opacity:1;font-family:Bitstream Vera Sans"
         xml:space="preserve"><tspan
           y="523.84534"
           x="342.97919"
           id="tspan4338"
           sodipodi:role="line">Porta punzn</tspan></text>
    </g>
    <g
       id="g4340"
       transform="translate(279.7517,-460.68035)">
      <path
         sodipodi:nodetypes="cc"
         id="path4342"
         d="M 294.73953,700.70476 C 397.33121,699.6623 383.09773,662.50646 382.14809,640.34242"
         style="fill:none;fill-rule:evenodd;stroke:#000000;stroke-width:1px;stroke-linecap:butt;stroke-linejoin:miter;marker-start:url(#Arrow1Lstart);marker-end:url(#Dot_m);stroke-opacity:1" />
      <text
         id="text4344"
         y="632.65662"
         x="366.57547"
         style="font-size:12px;font-style:normal;font-weight:normal;fill:#000000;fill-opacity:1;stroke:none;stroke-width:1px;stroke-linecap:butt;stroke-linejoin:miter;stroke-opacity:1;font-family:Bitstream Vera Sans"
         xml:space="preserve"><tspan
           y="632.65662"
           x="366.57547"
           id="tspan4346"
           sodipodi:role="line">Tasa</tspan></text>
    </g>
    <g
       id="g7425">
      <path
         style="fill:url(#linearGradient7423);fill-opacity:1;stroke:none;stroke-width:0.99900001;stroke-linecap:butt;stroke-linejoin:bevel;stroke-miterlimit:4;stroke-dashoffset:0;stroke-opacity:1"
         d="M 449.56603,266.41423 L 434.39375,269.22394 C 433.47877,269.37469 433.60366,271.63168 434.62452,271.48001 L 449.7968,268.67031 C 450.75643,268.56735 450.46178,266.3418 449.56603,266.41423 z "
         id="path5346"
         sodipodi:nodetypes="ccccc" />
      <path
         style="fill:url(#linearGradient7420);fill-opacity:1;stroke:none;stroke-width:0.99900001;stroke-linecap:butt;stroke-linejoin:bevel;stroke-miterlimit:4;stroke-dashoffset:0;stroke-opacity:1"
         d="M 449.56603,260.63757 L 434.39374,263.44728 C 433.47877,263.59803 433.60366,265.85502 434.62451,265.70335 L 449.7968,262.89364 C 450.75642,262.79069 450.46177,260.56514 449.56603,260.63757 z "
         id="path5354"
         sodipodi:nodetypes="ccccc" />
      <path
         style="fill:url(#linearGradient7417);fill-opacity:1;stroke:none;stroke-width:0.99900001;stroke-linecap:butt;stroke-linejoin:bevel;stroke-miterlimit:4;stroke-dashoffset:0;stroke-opacity:1"
         d="M 434.4375,257.8125 C 433.67057,257.99769 433.47535,259.96598 434.375,260.0625 L 449.53125,262.875 C 449.70967,262.90151 449.84583,262.81529 449.96875,262.71875 C 450.39976,262.56307 450.71876,262.17199 450.71875,261.6875 C 450.71875,261.06965 450.21161,260.56251 449.59375,260.5625 C 449.57265,260.5625 449.55206,260.56135 449.53125,260.5625 L 434.59375,257.8125 C 434.53777,257.80797 434.48863,257.80015 434.4375,257.8125 z "
         id="path5358" />
      <path
         style="fill:url(#linearGradient7414);fill-opacity:1;stroke:none;stroke-width:0.99900001;stroke-linecap:butt;stroke-linejoin:bevel;stroke-miterlimit:4;stroke-dashoffset:0;stroke-opacity:1"
         d="M 434.4375,269.25 C 434.32484,269.27721 434.24286,269.3764 434.15625,269.46875 C 433.82725,269.66374 433.59375,269.99632 433.59375,270.40625 C 433.59375,270.73894 433.73809,271.01368 433.96875,271.21875 C 434.06517,271.36411 434.19046,271.4802 434.375,271.5 L 449.53125,274.3125 C 450.5521,274.46417 450.69621,272.21325 449.78125,272.0625 L 434.71875,269.28125 L 434.59375,269.25 C 434.53777,269.24547 434.48863,269.23765 434.4375,269.25 z "
         id="rect4348" />
      <path
         style="fill:url(#linearGradient7411);fill-opacity:1;stroke:none;stroke-width:0.99900001;stroke-linecap:butt;stroke-linejoin:bevel;stroke-miterlimit:4;stroke-dashoffset:0;stroke-opacity:1"
         d="M 434.59375,263.5 C 434.53875,263.5 434.49039,263.52357 434.4375,263.53125 C 433.89632,263.6098 433.46875,264.06215 433.46875,264.625 C 433.46875,265.02007 433.69062,265.33203 434,265.53125 C 434.09479,265.6571 434.20584,265.7631 434.375,265.78125 L 449.53125,268.59375 C 449.78646,268.63167 449.98403,268.50512 450.125,268.3125 C 450.3965,268.10821 450.59375,267.80319 450.59375,267.4375 C 450.59375,267.0718 450.3965,266.7668 450.125,266.5625 C 450.03076,266.44682 449.9294,266.36816 449.78125,266.34375 L 435.0625,263.625 L 435.03125,263.59375 C 434.89736,263.53709 434.74821,263.5 434.59375,263.5 z "
         id="path5350" />
      <path
         id="path5420"
         d="M 434.4375,257.8125 C 433.67057,257.99769 433.47535,259.96598 434.375,260.0625 L 443.5,261.75 L 434.40625,263.4375 C 434.25376,263.46263 434.12664,263.56626 434.03125,263.6875 C 433.70323,263.87948 433.46875,264.21831 433.46875,264.625 C 433.46875,265.02007 433.69062,265.33203 434,265.53125 C 434.09479,265.6571 434.20584,265.7631 434.375,265.78125 L 443.65625,267.5 L 434.40625,269.21875 C 434.19217,269.25402 434.03957,269.41695 433.9375,269.625 C 433.93051,269.63925 433.91272,269.64148 433.90625,269.65625 C 433.71942,269.84793 433.59375,270.11448 433.59375,270.40625 C 433.59375,270.73894 433.73809,271.01368 433.96875,271.21875 C 434.06517,271.36411 434.19046,271.4802 434.375,271.5 L 449.53125,274.3125 C 450.5521,274.46417 450.69621,272.21325 449.78125,272.0625 L 440.59375,270.375 L 449.78125,268.65625 C 450.05437,268.62694 450.22753,268.42752 450.3125,268.15625 C 450.48252,267.96714 450.59375,267.71177 450.59375,267.4375 C 450.59375,267.0718 450.3965,266.7668 450.125,266.5625 C 450.03076,266.44682 449.9294,266.36816 449.78125,266.34375 L 440.5,264.625 L 449.78125,262.90625 C 449.97797,262.88514 450.12182,262.75518 450.21875,262.59375 C 450.52109,262.39842 450.71876,262.07509 450.71875,261.6875 C 450.71875,261.06965 450.21161,260.56251 449.59375,260.5625 C 449.57265,260.5625 449.55206,260.56135 449.53125,260.5625 L 434.59375,257.8125 C 434.53777,257.80797 434.48863,257.80015 434.4375,257.8125 z "
         style="fill:url(#linearGradient6439);fill-opacity:1;stroke:none;stroke-width:0.99900001;stroke-linecap:butt;stroke-linejoin:bevel;stroke-miterlimit:4;stroke-dashoffset:0;stroke-opacity:1" />
    </g>
    <g
       transform="translate(-198.28101,-290.25369)"
       id="g8417">
      <path
         style="fill:none;fill-rule:evenodd;stroke:#000000;stroke-width:1px;stroke-linecap:butt;stroke-linejoin:miter;marker-start:url(#Arrow1Lstart);marker-end:url(#Dot_m);stroke-opacity:1"
         d="M 627.3336,558.98221 C 597.81867,555.83166 475.61915,560.92805 461.01732,542.35669"
         id="path8419"
         sodipodi:nodetypes="cc" />
      <text
         xml:space="preserve"
         style="font-size:12px;font-style:normal;font-weight:normal;fill:#000000;fill-opacity:1;stroke:none;stroke-width:1px;stroke-linecap:butt;stroke-linejoin:miter;stroke-opacity:1;font-family:Bitstream Vera Sans"
         x="429.92206"
         y="535.34192"
         id="text8421"><tspan
           sodipodi:role="line"
           id="tspan8423"
           x="429.92206"
           y="535.34192">Resorte</tspan></text>
    </g>
    <rect
       style="fill:url(#pattern6307);fill-opacity:1;stroke:none;stroke-width:0.99900001;stroke-linecap:butt;stroke-linejoin:bevel;stroke-miterlimit:4;stroke-dasharray:none;stroke-dashoffset:0;stroke-opacity:1"
       id="rect2257"
       width="18.799017"
       height="3.9376345"
       x="499.69852"
       y="297.22549" />
    <rect
       y="297.22549"
       x="499.69852"
       height="3.9376345"
       width="18.799017"
       id="rect3232"
       style="fill:url(#pattern6307);fill-opacity:1;stroke:none;stroke-width:0.99900001;stroke-linecap:butt;stroke-linejoin:bevel;stroke-miterlimit:4;stroke-dasharray:none;stroke-dashoffset:0;stroke-opacity:1" />
    <rect
       style="fill:url(#pattern3236);fill-opacity:1;stroke:none;stroke-width:0.99900001;stroke-linecap:butt;stroke-linejoin:bevel;stroke-miterlimit:4;stroke-dasharray:none;stroke-dashoffset:0;stroke-opacity:1"
       id="rect3234"
       width="18.799017"
       height="3.9376345"
       x="365.81894"
       y="297.16199" />
  </g>
</svg>
